<svg class="rich-terminal" viewBox="0 0 1238 782.0" xmlns="http://www.w3.org/2000/svg">
    <!-- Generated with Rich https://www.textualize.io -->
    <style>

    @font-face {
        font-family: "Fira Code";
        src: local("FiraCode-Regular"),
                url("https://cdnjs.cloudflare.com/ajax/libs/firacode/6.2.0/woff2/FiraCode-Regular.woff2") format("woff2"),
                url("https://cdnjs.cloudflare.com/ajax/libs/firacode/6.2.0/woff/FiraCode-Regular.woff") format("woff");
        font-style: normal;
        font-weight: 400;
    }
    @font-face {
        font-family: "Fira Code";
        src: local("FiraCode-Bold"),
                url("https://cdnjs.cloudflare.com/ajax/libs/firacode/6.2.0/woff2/FiraCode-Bold.woff2") format("woff2"),
                url("https://cdnjs.cloudflare.com/ajax/libs/firacode/6.2.0/woff/FiraCode-Bold.woff") format("woff");
        font-style: bold;
        font-weight: 700;
    }

    .terminal-1385209475-matrix {
        font-family: Fira Code, monospace;
        font-size: 20px;
        line-height: 24.4px;
        font-variant-east-asian: full-width;
    }

    .terminal-1385209475-title {
        font-size: 18px;
        font-weight: bold;
        font-family: arial;
    }

    .terminal-1385209475-r1 { fill: #c5c8c6 }
.terminal-1385209475-r2 { fill: #e0e0e0 }
.terminal-1385209475-r3 { fill: #58d1eb;font-weight: bold }
.terminal-1385209475-r4 { fill: #9e9e9e }
.terminal-1385209475-r5 { fill: #58d1eb }
.terminal-1385209475-r6 { fill: #57a5e2 }
.terminal-1385209475-r7 { fill: #f4bc6e }
.terminal-1385209475-r8 { fill: #99b3d4 }
    </style>

    <defs>
    <clipPath id="terminal-1385209475-clip-terminal">
      <rect x="0" y="0" width="1219.0" height="731.0" />
    </clipPath>
    <clipPath id="terminal-1385209475-line-0">
    <rect x="0" y="1.5" width="1220" height="24.65"/>
            </clipPath>
<clipPath id="terminal-1385209475-line-1">
    <rect x="0" y="25.9" width="1220" height="24.65"/>
            </clipPath>
<clipPath id="terminal-1385209475-line-2">
    <rect x="0" y="50.3" width="1220" height="24.65"/>
            </clipPath>
<clipPath id="terminal-1385209475-line-3">
    <rect x="0" y="74.7" width="1220" height="24.65"/>
            </clipPath>
<clipPath id="terminal-1385209475-line-4">
    <rect x="0" y="99.1" width="1220" height="24.65"/>
            </clipPath>
<clipPath id="terminal-1385209475-line-5">
    <rect x="0" y="123.5" width="1220" height="24.65"/>
            </clipPath>
<clipPath id="terminal-1385209475-line-6">
    <rect x="0" y="147.9" width="1220" height="24.65"/>
            </clipPath>
<clipPath id="terminal-1385209475-line-7">
    <rect x="0" y="172.3" width="1220" height="24.65"/>
            </clipPath>
<clipPath id="terminal-1385209475-line-8">
    <rect x="0" y="196.7" width="1220" height="24.65"/>
            </clipPath>
<clipPath id="terminal-1385209475-line-9">
    <rect x="0" y="221.1" width="1220" height="24.65"/>
            </clipPath>
<clipPath id="terminal-1385209475-line-10">
    <rect x="0" y="245.5" width="1220" height="24.65"/>
            </clipPath>
<clipPath id="terminal-1385209475-line-11">
    <rect x="0" y="269.9" width="1220" height="24.65"/>
            </clipPath>
<clipPath id="terminal-1385209475-line-12">
    <rect x="0" y="294.3" width="1220" height="24.65"/>
            </clipPath>
<clipPath id="terminal-1385209475-line-13">
    <rect x="0" y="318.7" width="1220" height="24.65"/>
            </clipPath>
<clipPath id="terminal-1385209475-line-14">
    <rect x="0" y="343.1" width="1220" height="24.65"/>
            </clipPath>
<clipPath id="terminal-1385209475-line-15">
    <rect x="0" y="367.5" width="1220" height="24.65"/>
            </clipPath>
<clipPath id="terminal-1385209475-line-16">
    <rect x="0" y="391.9" width="1220" height="24.65"/>
            </clipPath>
<clipPath id="terminal-1385209475-line-17">
    <rect x="0" y="416.3" width="1220" height="24.65"/>
            </clipPath>
<clipPath id="terminal-1385209475-line-18">
    <rect x="0" y="440.7" width="1220" height="24.65"/>
            </clipPath>
<clipPath id="terminal-1385209475-line-19">
    <rect x="0" y="465.1" width="1220" height="24.65"/>
            </clipPath>
<clipPath id="terminal-1385209475-line-20">
    <rect x="0" y="489.5" width="1220" height="24.65"/>
            </clipPath>
<clipPath id="terminal-1385209475-line-21">
    <rect x="0" y="513.9" width="1220" height="24.65"/>
            </clipPath>
<clipPath id="terminal-1385209475-line-22">
    <rect x="0" y="538.3" width="1220" height="24.65"/>
            </clipPath>
<clipPath id="terminal-1385209475-line-23">
    <rect x="0" y="562.7" width="1220" height="24.65"/>
            </clipPath>
<clipPath id="terminal-1385209475-line-24">
    <rect x="0" y="587.1" width="1220" height="24.65"/>
            </clipPath>
<clipPath id="terminal-1385209475-line-25">
    <rect x="0" y="611.5" width="1220" height="24.65"/>
            </clipPath>
<clipPath id="terminal-1385209475-line-26">
    <rect x="0" y="635.9" width="1220" height="24.65"/>
            </clipPath>
<clipPath id="terminal-1385209475-line-27">
    <rect x="0" y="660.3" width="1220" height="24.65"/>
            </clipPath>
<clipPath id="terminal-1385209475-line-28">
    <rect x="0" y="684.7" width="1220" height="24.65"/>
            </clipPath>
    </defs>

    <rect fill="#292929" stroke="rgba(255,255,255,0.35)" stroke-width="1" x="1" y="1" width="1236" height="780" rx="8"/><text class="terminal-1385209475-title" fill="#c5c8c6" text-anchor="middle" x="618" y="27">Claude&#160;Panel</text>
            <g transform="translate(26,22)">
            <circle cx="0" cy="0" r="7" fill="#ff5f57"/>
            <circle cx="22" cy="0" r="7" fill="#febc2e"/>
            <circle cx="44" cy="0" r="7" fill="#28c840"/>
            </g>
        
    <g transform="translate(9, 41)" clip-path="url(#terminal-1385209475-clip-terminal)">
    <rect fill="#0053aa" x="0" y="1.5" width="12.2" height="24.65" shape-rendering="crispEdges"/><rect fill="#0053aa" x="12.2" y="1.5" width="12.2" height="24.65" shape-rendering="crispEdges"/><rect fill="#0053aa" x="24.4" y="1.5" width="61" height="24.65" shape-rendering="crispEdges"/><rect fill="#0053aa" x="85.4" y="1.5" width="12.2" height="24.65" shape-rendering="crispEdges"/><rect fill="#0053aa" x="97.6" y="1.5" width="427" height="24.65" shape-rendering="crispEdges"/><rect fill="#0053aa" x="524.6" y="1.5" width="146.4" height="24.65" shape-rendering="crispEdges"/><rect fill="#0053aa" x="671" y="1.5" width="427" height="24.65" shape-rendering="crispEdges"/><rect fill="#0053aa" x="1098" y="1.5" width="12.2" height="24.65" shape-rendering="crispEdges"/><rect fill="#0053aa" x="1110.2" y="1.5" width="0" height="24.65" shape-rendering="crispEdges"/><rect fill="#0053aa" x="1110.2" y="1.5" width="97.6" height="24.65" shape-rendering="crispEdges"/><rect fill="#0053aa" x="1207.8" y="1.5" width="12.2" height="24.65" shape-rendering="crispEdges"/><rect fill="#1e1e1e" x="0" y="25.9" width="1220" height="24.65" shape-rendering="crispEdges"/><rect fill="#1e1e1e" x="0" y="50.3" width="24.4" height="24.65" shape-rendering="crispEdges"/><rect fill="#1e1e1e" x="24.4" y="50.3" width="378.2" height="24.65" shape-rendering="crispEdges"/><rect fill="#1e1e1e" x="402.6" y="50.3" width="97.6" height="24.65" shape-rendering="crispEdges"/><rect fill="#1e1e1e" x="500.2" y="50.3" width="24.4" height="24.65" shape-rendering="crispEdges"/><rect fill="#1e1e1e" x="524.6" y="50.3" width="122" height="24.65" shape-rendering="crispEdges"/><rect fill="#1e1e1e" x="646.6" y="50.3" width="24.4" height="24.65" shape-rendering="crispEdges"/><rect fill="#1e1e1e" x="671" y="50.3" width="134.2" height="24.65" shape-rendering="crispEdges"/><rect fill="#1e1e1e" x="805.2" y="50.3" width="390.4" height="24.65" shape-rendering="crispEdges"/><rect fill="#1e1e1e" x="1195.6" y="50.3" width="24.4" height="24.65" shape-rendering="crispEdges"/><rect fill="#1e1e1e" x="0" y="74.7" width="24.4" height="24.65" shape-rendering="crispEdges"/><rect fill="#1e1e1e" x="24.4" y="74.7" width="1171.2" height="24.65" shape-rendering="crispEdges"/><rect fill="#1e1e1e" x="1195.6" y="74.7" width="24.4" height="24.65" shape-rendering="crispEdges"/><rect fill="#1e1e1e" x="0" y="99.1" width="24.4" height="24.65" shape-rendering="crispEdges"/><rect fill="#1e1e1e" x="24.4" y="99.1" width="12.2" height="24.65" shape-rendering="crispEdges"/><rect fill="#1e1e1e" x="36.6" y="99.1" width="12.2" height="24.65" shape-rendering="crispEdges"/><rect fill="#1e1e1e" x="48.8" y="99.1" width="305" height="24.65" shape-rendering="crispEdges"/><rect fill="#1e1e1e" x="353.8" y="99.1" width="829.6" height="24.65" shape-rendering="crispEdges"/><rect fill="#1e1e1e" x="1183.4" y="99.1" width="12.2" height="24.65" shape-rendering="crispEdges"/><rect fill="#1e1e1e" x="1195.6" y="99.1" width="24.4" height="24.65" shape-rendering="crispEdges"/><rect fill="#1e1e1e" x="0" y="123.5" width="24.4" height="24.65" shape-rendering="crispEdges"/><rect fill="#1e1e1e" x="24.4" y="123.5" width="12.2" height="24.65" shape-rendering="crispEdges"/><rect fill="#1e1e1e" x="36.6" y="123.5" width="12.2" height="24.65" shape-rendering="crispEdges"/><rect fill="#1e1e1e" x="48.8" y="123.5" width="24.4" height="24.65" shape-rendering="crispEdges"/><rect fill="#1e1e1e" x="73.2" y="123.5" width="24.4" height="24.65" shape-rendering="crispEdges"/><rect fill="#1e1e1e" x="97.6" y="123.5" width="634.4" height="24.65" shape-rendering="crispEdges"/><rect fill="#1e1e1e" x="732" y="123.5" width="414.8" height="24.65" shape-rendering="crispEdges"/><rect fill="#1e1e1e" x="1146.8" y="123.5" width="24.4" height="24.65" shape-rendering="crispEdges"/><rect fill="#1e1e1e" x="1171.2" y="123.5" width="12.2" height="24.65" shape-rendering="crispEdges"/><rect fill="#1e1e1e" x="1183.4" y="123.5" width="12.2" height="24.65" shape-rendering="crispEdges"/><rect fill="#1e1e1e" x="1195.6" y="123.5" width="24.4" height="24.65" shape-rendering="crispEdges"/><rect fill="#1e1e1e" x="0" y="147.9" width="24.4" height="24.65" shape-rendering="crispEdges"/><rect fill="#1e1e1e" x="24.4" y="147.9" width="12.2" height="24.65" shape-rendering="crispEdges"/><rect fill="#1e1e1e" x="36.6" y="147.9" width="12.2" height="24.65" shape-rendering="crispEdges"/><rect fill="#1e1e1e" x="48.8" y="147.9" width="24.4" height="24.65" shape-rendering="crispEdges"/><rect fill="#1e1e1e" x="73.2" y="147.9" width="24.4" height="24.65" shape-rendering="crispEdges"/><rect fill="#1e1e1e" x="97.6" y="147.9" width="48.8" height="24.65" shape-rendering="crispEdges"/><rect fill="#2f281e" x="146.4" y="147.9" width="183" height="24.65" shape-rendering="crispEdges"/><rect fill="#1e1e1e" x="329.4" y="147.9" width="280.6" height="24.65" shape-rendering="crispEdges"/><rect fill="#1e1e1e" x="610" y="147.9" width="536.8" height="24.65" shape-rendering="crispEdges"/><rect fill="#1e1e1e" x="1146.8" y="147.9" width="24.4" height="24.65" shape-rendering="crispEdges"/><rect fill="#1e1e1e" x="1171.2" y="147.9" width="12.2" height="24.65" shape-rendering="crispEdges"/><rect fill="#1e1e1e" x="1183.4" y="147.9" width="12.2" height="24.65" shape-rendering="crispEdges"/><rect fill="#1e1e1e" x="1195.6" y="147.9" width="24.4" height="24.65" shape-rendering="crispEdges"/><rect fill="#1e1e1e" x="0" y="172.3" width="24.4" height="24.65" shape-rendering="crispEdges"/><rect fill="#1e1e1e" x="24.4" y="172.3" width="12.2" height="24.65" shape-rendering="crispEdges"/><rect fill="#1e1e1e" x="36.6" y="172.3" width="12.2" height="24.65" shape-rendering="crispEdges"/><rect fill="#1e1e1e" x="48.8" y="172.3" width="24.4" height="24.65" shape-rendering="crispEdges"/><rect fill="#1e1e1e" x="73.2" y="172.3" width="24.4" height="24.65" shape-rendering="crispEdges"/><rect fill="#1e1e1e" x="97.6" y="172.3" width="658.8" height="24.65" shape-rendering="crispEdges"/><rect fill="#1e1e1e" x="756.4" y="172.3" width="390.4" height="24.65" shape-rendering="crispEdges"/><rect fill="#1e1e1e" x="1146.8" y="172.3" width="24.4" height="24.65" shape-rendering="crispEdges"/><rect fill="#1e1e1e" x="1171.2" y="172.3" width="12.2" height="24.65" shape-rendering="crispEdges"/><rect fill="#1e1e1e" x="1183.4" y="172.3" width="12.2" height="24.65" shape-rendering="crispEdges"/><rect fill="#1e1e1e" x="1195.6" y="172.3" width="24.4" height="24.65" shape-rendering="crispEdges"/><rect fill="#1e1e1e" x="0" y="196.7" width="24.4" height="24.65" shape-rendering="crispEdges"/><rect fill="#1e1e1e" x="24.4" y="196.7" width="12.2" height="24.65" shape-rendering="crispEdges"/><rect fill="#1e1e1e" x="36.6" y="196.7" width="12.2" height="24.65" shape-rendering="crispEdges"/><rect fill="#1e1e1e" x="48.8" y="196.7" width="24.4" height="24.65" shape-rendering="crispEdges"/><rect fill="#1e1e1e" x="73.2" y="196.7" width="24.4" height="24.65" shape-rendering="crispEdges"/><rect fill="#1e1e1e" x="97.6" y="196.7" width="244" height="24.65" shape-rendering="crispEdges"/><rect fill="#2f281e" x="341.6" y="196.7" width="48.8" height="24.65" shape-rendering="crispEdges"/><rect fill="#1e1e1e" x="390.4" y="196.7" width="24.4" height="24.65" shape-rendering="crispEdges"/><rect fill="#2f281e" x="414.8" y="196.7" width="146.4" height="24.65" shape-rendering="crispEdges"/><rect fill="#1e1e1e" x="561.2" y="196.7" width="24.4" height="24.65" shape-rendering="crispEdges"/><rect fill="#2f281e" x="585.6" y="196.7" width="85.4" height="24.65" shape-rendering="crispEdges"/><rect fill="#1e1e1e" x="671" y="196.7" width="12.2" height="24.65" shape-rendering="crispEdges"/><rect fill="#1e1e1e" x="683.2" y="196.7" width="463.6" height="24.65" shape-rendering="crispEdges"/><rect fill="#1e1e1e" x="1146.8" y="196.7" width="24.4" height="24.65" shape-rendering="crispEdges"/><rect fill="#1e1e1e" x="1171.2" y="196.7" width="12.2" height="24.65" shape-rendering="crispEdges"/><rect fill="#1e1e1e" x="1183.4" y="196.7" width="12.2" height="24.65" shape-rendering="crispEdges"/><rect fill="#1e1e1e" x="1195.6" y="196.7" width="24.4" height="24.65" shape-rendering="crispEdges"/><rect fill="#1e1e1e" x="0" y="221.1" width="24.4" height="24.65" shape-rendering="crispEdges"/><rect fill="#1e1e1e" x="24.4" y="221.1" width="12.2" height="24.65" shape-rendering="crispEdges"/><rect fill="#1e1e1e" x="36.6" y="221.1" width="12.2" height="24.65" shape-rendering="crispEdges"/><rect fill="#1e1e1e" x="48.8" y="221.1" width="24.4" height="24.65" shape-rendering="crispEdges"/><rect fill="#1e1e1e" x="73.2" y="221.1" width="24.4" height="24.65" shape-rendering="crispEdges"/><rect fill="#1e1e1e" x="97.6" y="221.1" width="268.4" height="24.65" shape-rendering="crispEdges"/><rect fill="#1e1e1e" x="366" y="221.1" width="780.8" height="24.65" shape-rendering="crispEdges"/><rect fill="#1e1e1e" x="1146.8" y="221.1" width="24.4" height="24.65" shape-rendering="crispEdges"/><rect fill="#1e1e1e" x="1171.2" y="221.1" width="12.2" height="24.65" shape-rendering="crispEdges"/><rect fill="#1e1e1e" x="1183.4" y="221.1" width="12.2" height="24.65" shape-rendering="crispEdges"/><rect fill="#1e1e1e" x="1195.6" y="221.1" width="24.4" height="24.65" shape-rendering="crispEdges"/><rect fill="#1e1e1e" x="0" y="245.5" width="24.4" height="24.65" shape-rendering="crispEdges"/><rect fill="#1e1e1e" x="24.4" y="245.5" width="12.2" height="24.65" shape-rendering="crispEdges"/><rect fill="#1e1e1e" x="36.6" y="245.5" width="12.2" height="24.65" shape-rendering="crispEdges"/><rect fill="#1e1e1e" x="48.8" y="245.5" width="24.4" height="24.65" shape-rendering="crispEdges"/><rect fill="#1e1e1e" x="73.2" y="245.5" width="24.4" height="24.65" shape-rendering="crispEdges"/><rect fill="#1e1e1e" x="97.6" y="245.5" width="158.6" height="24.65" shape-rendering="crispEdges"/><rect fill="#2f281e" x="256.2" y="245.5" width="329.4" height="24.65" shape-rendering="crispEdges"/><rect fill="#1e1e1e" x="585.6" y="245.5" width="561.2" height="24.65" shape-rendering="crispEdges"/><rect fill="#1e1e1e" x="1146.8" y="245.5" width="24.4" height="24.65" shape-rendering="crispEdges"/><rect fill="#1e1e1e" x="1171.2" y="245.5" width="12.2" height="24.65" shape-rendering="crispEdges"/><rect fill="#1e1e1e" x="1183.4" y="245.5" width="12.2" height="24.65" shape-rendering="crispEdges"/><rect fill="#1e1e1e" x="1195.6" y="245.5" width="24.4" height="24.65" shape-rendering="crispEdges"/><rect fill="#1e1e1e" x="0" y="269.9" width="24.4" height="24.65" shape-rendering="crispEdges"/><rect fill="#1e1e1e" x="24.4" y="269.9" width="12.2" height="24.65" shape-rendering="crispEdges"/><rect fill="#1e1e1e" x="36.6" y="269.9" width="12.2" height="24.65" shape-rendering="crispEdges"/><rect fill="#1e1e1e" x="48.8" y="269.9" width="24.4" height="24.65" shape-rendering="crispEdges"/><rect fill="#1e1e1e" x="73.2" y="269.9" width="1073.6" height="24.65" shape-rendering="crispEdges"/><rect fill="#1e1e1e" x="1146.8" y="269.9" width="24.4" height="24.65" shape-rendering="crispEdges"/><rect fill="#1e1e1e" x="1171.2" y="269.9" width="12.2" height="24.65" shape-rendering="crispEdges"/><rect fill="#1e1e1e" x="1183.4" y="269.9" width="12.2" height="24.65" shape-rendering="crispEdges"/><rect fill="#1e1e1e" x="1195.6" y="269.9" width="24.4" height="24.65" shape-rendering="crispEdges"/><rect fill="#1e1e1e" x="0" y="294.3" width="24.4" height="24.65" shape-rendering="crispEdges"/><rect fill="#1e1e1e" x="24.4" y="294.3" width="12.2" height="24.65" shape-rendering="crispEdges"/><rect fill="#1e1e1e" x="36.6" y="294.3" width="1146.8" height="24.65" shape-rendering="crispEdges"/><rect fill="#1e1e1e" x="1183.4" y="294.3" width="12.2" height="24.65" shape-rendering="crispEdges"/><rect fill="#1e1e1e" x="1195.6" y="294.3" width="24.4" height="24.65" shape-rendering="crispEdges"/><rect fill="#1e1e1e" x="0" y="318.7" width="24.4" height="24.65" shape-rendering="crispEdges"/><rect fill="#1e1e1e" x="24.4" y="318.7" width="1171.2" height="24.65" shape-rendering="crispEdges"/><rect fill="#1e1e1e" x="1195.6" y="318.7" width="24.4" height="24.65" shape-rendering="crispEdges"/><rect fill="#1e1e1e" x="0" y="343.1" width="24.4" height="24.65" shape-rendering="crispEdges"/><rect fill="#1e1e1e" x="24.4" y="343.1" width="12.2" height="24.65" shape-rendering="crispEdges"/><rect fill="#1e1e1e" x="36.6" y="343.1" width="12.2" height="24.65" shape-rendering="crispEdges"/><rect fill="#1e1e1e" x="48.8" y="343.1" width="170.8" height="24.65" shape-rendering="crispEdges"/><rect fill="#1e1e1e" x="219.6" y="343.1" width="963.8" height="24.65" shape-rendering="crispEdges"/><rect fill="#1e1e1e" x="1183.4" y="343.1" width="12.2" height="24.65" shape-rendering="crispEdges"/><rect fill="#1e1e1e" x="1195.6" y="343.1" width="24.4" height="24.65" shape-rendering="crispEdges"/><rect fill="#1e1e1e" x="0" y="367.5" width="24.4" height="24.65" shape-rendering="crispEdges"/><rect fill="#1e1e1e" x="24.4" y="367.5" width="12.2" height="24.65" shape-rendering="crispEdges"/><rect fill="#1e1e1e" x="36.6" y="367.5" width="12.2" height="24.65" shape-rendering="crispEdges"/><rect fill="#1e1e1e" x="48.8" y="367.5" width="24.4" height="24.65" shape-rendering="crispEdges"/><rect fill="#1e1e1e" x="73.2" y="367.5" width="24.4" height="24.65" shape-rendering="crispEdges"/><rect fill="#1e1e1e" x="97.6" y="367.5" width="48.8" height="24.65" shape-rendering="crispEdges"/><rect fill="#2f281e" x="146.4" y="367.5" width="414.8" height="24.65" shape-rendering="crispEdges"/><rect fill="#1e1e1e" x="561.2" y="367.5" width="36.6" height="24.65" shape-rendering="crispEdges"/><rect fill="#2f281e" x="597.8" y="367.5" width="219.6" height="24.65" shape-rendering="crispEdges"/><rect fill="#1e1e1e" x="817.4" y="367.5" width="329.4" height="24.65" shape-rendering="crispEdges"/><rect fill="#1e1e1e" x="1146.8" y="367.5" width="24.4" height="24.65" shape-rendering="crispEdges"/><rect fill="#1e1e1e" x="1171.2" y="367.5" width="12.2" height="24.65" shape-rendering="crispEdges"/><rect fill="#1e1e1e" x="1183.4" y="367.5" width="12.2" height="24.65" shape-rendering="crispEdges"/><rect fill="#1e1e1e" x="1195.6" y="367.5" width="24.4" height="24.65" shape-rendering="crispEdges"/><rect fill="#1e1e1e" x="0" y="391.9" width="24.4" height="24.65" shape-rendering="crispEdges"/><rect fill="#1e1e1e" x="24.4" y="391.9" width="12.2" height="24.65" shape-rendering="crispEdges"/><rect fill="#1e1e1e" x="36.6" y="391.9" width="12.2" height="24.65" shape-rendering="crispEdges"/><rect fill="#1e1e1e" x="48.8" y="391.9" width="24.4" height="24.65" shape-rendering="crispEdges"/><rect fill="#1e1e1e" x="73.2" y="391.9" width="24.4" height="24.65" shape-rendering="crispEdges"/><rect fill="#1e1e1e" x="97.6" y="391.9" width="134.2" height="24.65" shape-rendering="crispEdges"/><rect fill="#2f281e" x="231.8" y="391.9" width="280.6" height="24.65" shape-rendering="crispEdges"/><rect fill="#1e1e1e" x="512.4" y="391.9" width="427" height="24.65" shape-rendering="crispEdges"/><rect fill="#1e1e1e" x="939.4" y="391.9" width="207.4" height="24.65" shape-rendering="crispEdges"/><rect fill="#1e1e1e" x="1146.8" y="391.9" width="24.4" height="24.65" shape-rendering="crispEdges"/><rect fill="#1e1e1e" x="1171.2" y="391.9" width="12.2" height="24.65" shape-rendering="crispEdges"/><rect fill="#1e1e1e" x="1183.4" y="391.9" width="12.2" height="24.65" shape-rendering="crispEdges"/><rect fill="#1e1e1e" x="1195.6" y="391.9" width="24.4" height="24.65" shape-rendering="crispEdges"/><rect fill="#1e1e1e" x="0" y="416.3" width="24.4" height="24.65" shape-rendering="crispEdges"/><rect fill="#1e1e1e" x="24.4" y="416.3" width="12.2" height="24.65" shape-rendering="crispEdges"/><rect fill="#1e1e1e" x="36.6" y="416.3" width="12.2" height="24.65" shape-rendering="crispEdges"/><rect fill="#1e1e1e" x="48.8" y="416.3" width="24.4" height="24.65" shape-rendering="crispEdges"/><rect fill="#1e1e1e" x="73.2" y="416.3" width="24.4" height="24.65" shape-rendering="crispEdges"/><rect fill="#1e1e1e" x="97.6" y="416.3" width="488" height="24.65" shape-rendering="crispEdges"/><rect fill="#1e1e1e" x="585.6" y="416.3" width="561.2" height="24.65" shape-rendering="crispEdges"/><rect fill="#1e1e1e" x="1146.8" y="416.3" width="24.4" height="24.65" shape-rendering="crispEdges"/><rect fill="#1e1e1e" x="1171.2" y="416.3" width="12.2" height="24.65" shape-rendering="crispEdges"/><rect fill="#1e1e1e" x="1183.4" y="416.3" width="12.2" height="24.65" shape-rendering="crispEdges"/><rect fill="#1e1e1e" x="1195.6" y="416.3" width="24.4" height="24.65" shape-rendering="crispEdges"/><rect fill="#1e1e1e" x="0" y="440.7" width="24.4" height="24.65" shape-rendering="crispEdges"/><rect fill="#1e1e1e" x="24.4" y="440.7" width="12.2" height="24.65" shape-rendering="crispEdges"/><rect fill="#1e1e1e" x="36.6" y="440.7" width="12.2" height="24.65" shape-rendering="crispEdges"/><rect fill="#1e1e1e" x="48.8" y="440.7" width="24.4" height="24.65" shape-rendering="crispEdges"/><rect fill="#1e1e1e" x="73.2" y="440.7" width="24.4" height="24.65" shape-rendering="crispEdges"/><rect fill="#1e1e1e" x="97.6" y="440.7" width="170.8" height="24.65" shape-rendering="crispEdges"/><rect fill="#2f281e" x="268.4" y="440.7" width="231.8" height="24.65" shape-rendering="crispEdges"/><rect fill="#1e1e1e" x="500.2" y="440.7" width="24.4" height="24.65" shape-rendering="crispEdges"/><rect fill="#2f281e" x="524.6" y="440.7" width="146.4" height="24.65" shape-rendering="crispEdges"/><rect fill="#1e1e1e" x="671" y="440.7" width="244" height="24.65" shape-rendering="crispEdges"/><rect fill="#1e1e1e" x="915" y="440.7" width="231.8" height="24.65" shape-rendering="crispEdges"/><rect fill="#1e1e1e" x="1146.8" y="440.7" width="24.4" height="24.65" shape-rendering="crispEdges"/><rect fill="#1e1e1e" x="1171.2" y="440.7" width="12.2" height="24.65" shape-rendering="crispEdges"/><rect fill="#1e1e1e" x="1183.4" y="440.7" width="12.2" height="24.65" shape-rendering="crispEdges"/><rect fill="#1e1e1e" x="1195.6" y="440.7" width="24.4" height="24.65" shape-rendering="crispEdges"/><rect fill="#1e1e1e" x="0" y="465.1" width="24.4" height="24.65" shape-rendering="crispEdges"/><rect fill="#1e1e1e" x="24.4" y="465.1" width="12.2" height="24.65" shape-rendering="crispEdges"/><rect fill="#1e1e1e" x="36.6" y="465.1" width="12.2" height="24.65" shape-rendering="crispEdges"/><rect fill="#1e1e1e" x="48.8" y="465.1" width="24.4" height="24.65" shape-rendering="crispEdges"/><rect fill="#1e1e1e" x="73.2" y="465.1" width="1073.6" height="24.65" shape-rendering="crispEdges"/><rect fill="#1e1e1e" x="1146.8" y="465.1" width="24.4" height="24.65" shape-rendering="crispEdges"/><rect fill="#1e1e1e" x="1171.2" y="465.1" width="12.2" height="24.65" shape-rendering="crispEdges"/><rect fill="#1e1e1e" x="1183.4" y="465.1" width="12.2" height="24.65" shape-rendering="crispEdges"/><rect fill="#1e1e1e" x="1195.6" y="465.1" width="24.4" height="24.65" shape-rendering="crispEdges"/><rect fill="#1e1e1e" x="0" y="489.5" width="24.4" height="24.65" shape-rendering="crispEdges"/><rect fill="#1e1e1e" x="24.4" y="489.5" width="12.2" height="24.65" shape-rendering="crispEdges"/><rect fill="#1e1e1e" x="36.6" y="489.5" width="1146.8" height="24.65" shape-rendering="crispEdges"/><rect fill="#1e1e1e" x="1183.4" y="489.5" width="12.2" height="24.65" shape-rendering="crispEdges"/><rect fill="#1e1e1e" x="1195.6" y="489.5" width="24.4" height="24.65" shape-rendering="crispEdges"/><rect fill="#1e1e1e" x="0" y="513.9" width="24.4" height="24.65" shape-rendering="crispEdges"/><rect fill="#1e1e1e" x="24.4" y="513.9" width="1171.2" height="24.65" shape-rendering="crispEdges"/><rect fill="#1e1e1e" x="1195.6" y="513.9" width="24.4" height="24.65" shape-rendering="crispEdges"/><rect fill="#1e1e1e" x="0" y="538.3" width="24.4" height="24.65" shape-rendering="crispEdges"/><rect fill="#1e1e1e" x="24.4" y="538.3" width="1171.2" height="24.65" shape-rendering="crispEdges"/><rect fill="#1e1e1e" x="1195.6" y="538.3" width="24.4" height="24.65" shape-rendering="crispEdges"/><rect fill="#1e1e1e" x="0" y="562.7" width="24.4" height="24.65" shape-rendering="crispEdges"/><rect fill="#1e1e1e" x="24.4" y="562.7" width="1171.2" height="24.65" shape-rendering="crispEdges"/><rect fill="#1e1e1e" x="1195.6" y="562.7" width="24.4" height="24.65" shape-rendering="crispEdges"/><rect fill="#1e1e1e" x="0" y="587.1" width="24.4" height="24.65" shape-rendering="crispEdges"/><rect fill="#1e1e1e" x="24.4" y="587.1" width="1171.2" height="24.65" shape-rendering="crispEdges"/><rect fill="#1e1e1e" x="1195.6" y="587.1" width="24.4" height="24.65" shape-rendering="crispEdges"/><rect fill="#1e1e1e" x="0" y="611.5" width="24.4" height="24.65" shape-rendering="crispEdges"/><rect fill="#1e1e1e" x="24.4" y="611.5" width="1171.2" height="24.65" shape-rendering="crispEdges"/><rect fill="#1e1e1e" x="1195.6" y="611.5" width="24.4" height="24.65" shape-rendering="crispEdges"/><rect fill="#1e1e1e" x="0" y="635.9" width="24.4" height="24.65" shape-rendering="crispEdges"/><rect fill="#1e1e1e" x="24.4" y="635.9" width="1171.2" height="24.65" shape-rendering="crispEdges"/><rect fill="#1e1e1e" x="1195.6" y="635.9" width="24.4" height="24.65" shape-rendering="crispEdges"/><rect fill="#1e1e1e" x="0" y="660.3" width="24.4" height="24.65" shape-rendering="crispEdges"/><rect fill="#1e1e1e" x="24.4" y="660.3" width="1171.2" height="24.65" shape-rendering="crispEdges"/><rect fill="#1e1e1e" x="1195.6" y="660.3" width="24.4" height="24.65" shape-rendering="crispEdges"/><rect fill="#1e1e1e" x="0" y="684.7" width="1220" height="24.65" shape-rendering="crispEdges"/><rect fill="#004295" x="0" y="709.1" width="12.2" height="24.65" shape-rendering="crispEdges"/><rect fill="#004295" x="12.2" y="709.1" width="268.4" height="24.65" shape-rendering="crispEdges"/><rect fill="#004295" x="280.6" y="709.1" width="927.2" height="24.65" shape-rendering="crispEdges"/><rect fill="#004295" x="1207.8" y="709.1" width="12.2" height="24.65" shape-rendering="crispEdges"/>
    <g class="terminal-1385209475-matrix">
    <text class="terminal-1385209475-r2" x="12.2" y="20" textLength="12.2" clip-path="url(#terminal-1385209475-line-0)">⭘</text><text class="terminal-1385209475-r2" x="524.6" y="20" textLength="146.4" clip-path="url(#terminal-1385209475-line-0)">Claude&#160;Panel</text><text class="terminal-1385209475-r1" x="1220" y="20" textLength="12.2" clip-path="url(#terminal-1385209475-line-0)">
</text><text class="terminal-1385209475-r1" x="1220" y="44.4" textLength="12.2" clip-path="url(#terminal-1385209475-line-1)">
</text><text class="terminal-1385209475-r3" x="402.6" y="68.8" textLength="97.6" clip-path="url(#terminal-1385209475-line-2)">&#160;●&#160;main&#160;</text><text class="terminal-1385209475-r4" x="524.6" y="68.8" textLength="122" clip-path="url(#terminal-1385209475-line-2)">&#160;○&#160;status&#160;</text><text class="terminal-1385209475-r4" x="671" y="68.8" textLength="134.2" clip-path="url(#terminal-1385209475-line-2)">&#160;○&#160;ambient&#160;</text><text class="terminal-1385209475-r1" x="1220" y="68.8" textLength="12.2" clip-path="url(#terminal-1385209475-line-2)">
</text><text class="terminal-1385209475-r1" x="1220" y="93.2" textLength="12.2" clip-path="url(#terminal-1385209475-line-3)">
</text><text class="terminal-1385209475-r5" x="24.4" y="117.6" textLength="12.2" clip-path="url(#terminal-1385209475-line-4)">╭</text><text class="terminal-1385209475-r5" x="36.6" y="117.6" textLength="12.2" clip-path="url(#terminal-1385209475-line-4)">─</text><text class="terminal-1385209475-r5" x="48.8" y="117.6" textLength="280.6" clip-path="url(#terminal-1385209475-line-4)">&#160;🚀&#160;🚀&#160;Shipped&#160;(9ef4489)&#160;</text><text class="terminal-1385209475-r5" x="353.8" y="117.6" textLength="829.6" clip-path="url(#terminal-1385209475-line-4)">────────────────────────────────────────────────────────────────────</text><text class="terminal-1385209475-r5" x="1183.4" y="117.6" textLength="12.2" clip-path="url(#terminal-1385209475-line-4)">╮</text><text class="terminal-1385209475-r1" x="1220" y="117.6" textLength="12.2" clip-path="url(#terminal-1385209475-line-4)">
</text><text class="terminal-1385209475-r5" x="24.4" y="142" textLength="12.2" clip-path="url(#terminal-1385209475-line-5)">│</text><text class="terminal-1385209475-r6" x="73.2" y="142" textLength="24.4" clip-path="url(#terminal-1385209475-line-5)">•&#160;</text><text class="terminal-1385209475-r2" x="97.6" y="142" textLength="634.4" clip-path="url(#terminal-1385209475-line-5)">[x]&#160;README&#160;overhaul&#160;—&#160;tagline,&#160;badges,&#160;feature&#160;table</text><text class="terminal-1385209475-r5" x="1183.4" y="142" textLength="12.2" clip-path="url(#terminal-1385209475-line-5)">│</text><text class="terminal-1385209475-r1" x="1220" y="142" textLength="12.2" clip-path="url(#terminal-1385209475-line-5)">
</text><text class="terminal-1385209475-r5" x="24.4" y="166.4" textLength="12.2" clip-path="url(#terminal-1385209475-line-6)">│</text><text class="terminal-1385209475-r6" x="73.2" y="166.4" textLength="24.4" clip-path="url(#terminal-1385209475-line-6)">•&#160;</text><text class="terminal-1385209475-r2" x="97.6" y="166.4" textLength="48.8" clip-path="url(#terminal-1385209475-line-6)">[x]&#160;</text><text class="terminal-1385209475-r7" x="146.4" y="166.4" textLength="183" clip-path="url(#terminal-1385209475-line-6)">CONTRIBUTING.md</text><text class="terminal-1385209475-r2" x="329.4" y="166.4" textLength="280.6" clip-path="url(#terminal-1385209475-line-6)">&#160;—&#160;screensaver&#160;API&#160;docs</text><text class="terminal-1385209475-r5" x="1183.4" y="166.4" textLength="12.2" clip-path="url(#terminal-1385209475-line-6)">│</text><text class="terminal-1385209475-r1" x="1220" y="166.4" textLength="12.2" clip-path="url(#terminal-1385209475-line-6)">
</text><text class="terminal-1385209475-r5" x="24.4" y="190.8" textLength="12.2" clip-path="url(#terminal-1385209475-line-7)">│</text><text class="terminal-1385209475-r6" x="73.2" y="190.8" textLength="24.4" clip-path="url(#terminal-1385209475-line-7)">•&#160;</text><text class="terminal-1385209475-r2" x="97.6" y="190.8" textLength="658.8" clip-path="url(#terminal-1385209475-line-7)">[x]&#160;Issue&#160;templates&#160;(bug&#160;/&#160;feature&#160;/&#160;screensaver&#160;idea)</text><text class="terminal-1385209475-r5" x="1183.4" y="190.8" textLength="12.2" clip-path="url(#terminal-1385209475-line-7)">│</text><text class="terminal-1385209475-r1" x="1220" y="190.8" textLength="12.2" clip-path="url(#terminal-1385209475-line-7)">
</text><text class="terminal-1385209475-r5" x="24.4" y="215.2" textLength="12.2" clip-path="url(#terminal-1385209475-line-8)">│</text><text class="terminal-1385209475-r6" x="73.2" y="215.2" textLength="24.4" clip-path="url(#terminal-1385209475-line-8)">•&#160;</text><text class="terminal-1385209475-r2" x="97.6" y="215.2" textLength="244" clip-path="url(#terminal-1385209475-line-8)">[x]&#160;VHS&#160;tape&#160;files&#160;(</text><text class="terminal-1385209475-r7" x="341.6" y="215.2" textLength="48.8" clip-path="url(#terminal-1385209475-line-8)">hero</text><text class="terminal-1385209475-r2" x="390.4" y="215.2" textLength="24.4" clip-path="url(#terminal-1385209475-line-8)">,&#160;</text><text class="terminal-1385209475-r7" x="414.8" y="215.2" textLength="146.4" clip-path="url(#terminal-1385209475-line-8)">screensavers</text><text class="terminal-1385209475-r2" x="561.2" y="215.2" textLength="24.4" clip-path="url(#terminal-1385209475-line-8)">,&#160;</text><text class="terminal-1385209475-r7" x="585.6" y="215.2" textLength="85.4" clip-path="url(#terminal-1385209475-line-8)">install</text><text class="terminal-1385209475-r2" x="671" y="215.2" textLength="12.2" clip-path="url(#terminal-1385209475-line-8)">)</text><text class="terminal-1385209475-r5" x="1183.4" y="215.2" textLength="12.2" clip-path="url(#terminal-1385209475-line-8)">│</text><text class="terminal-1385209475-r1" x="1220" y="215.2" textLength="12.2" clip-path="url(#terminal-1385209475-line-8)">
</text><text class="terminal-1385209475-r5" x="24.4" y="239.6" textLength="12.2" clip-path="url(#terminal-1385209475-line-9)">│</text><text class="terminal-1385209475-r6" x="73.2" y="239.6" textLength="24.4" clip-path="url(#terminal-1385209475-line-9)">•&#160;</text><text class="terminal-1385209475-r2" x="97.6" y="239.6" textLength="268.4" clip-path="url(#terminal-1385209475-line-9)">[x]&#160;Social&#160;preview&#160;PNG</text><text class="terminal-1385209475-r5" x="1183.4" y="239.6" textLength="12.2" clip-path="url(#terminal-1385209475-line-9)">│</text><text class="terminal-1385209475-r1" x="1220" y="239.6" textLength="12.2" clip-path="url(#terminal-1385209475-line-9)">
</text><text class="terminal-1385209475-r5" x="24.4" y="264" textLength="12.2" clip-path="url(#terminal-1385209475-line-10)">│</text><text class="terminal-1385209475-r6" x="73.2" y="264" textLength="24.4" clip-path="url(#terminal-1385209475-line-10)">•&#160;</text><text class="terminal-1385209475-r2" x="97.6" y="264" textLength="158.6" clip-path="url(#terminal-1385209475-line-10)">[x]&#160;Pushed&#160;→&#160;</text><text class="terminal-1385209475-r7" x="256.2" y="264" textLength="329.4" clip-path="url(#terminal-1385209475-line-10)">feat/panel-curator-bg-agent</text><text class="terminal-1385209475-r5" x="1183.4" y="264" textLength="12.2" clip-path="url(#terminal-1385209475-line-10)">│</text><text class="terminal-1385209475-r1" x="1220" y="264" textLength="12.2" clip-path="url(#terminal-1385209475-line-10)">
</text><text class="terminal-1385209475-r5" x="24.4" y="288.4" textLength="12.2" clip-path="url(#terminal-1385209475-line-11)">│</text><text class="terminal-1385209475-r5" x="1183.4" y="288.4" textLength="12.2" clip-path="url(#terminal-1385209475-line-11)">│</text><text class="terminal-1385209475-r1" x="1220" y="288.4" textLength="12.2" clip-path="url(#terminal-1385209475-line-11)">
</text><text class="terminal-1385209475-r5" x="24.4" y="312.8" textLength="12.2" clip-path="url(#terminal-1385209475-line-12)">╰</text><text class="terminal-1385209475-r5" x="36.6" y="312.8" textLength="1146.8" clip-path="url(#terminal-1385209475-line-12)">──────────────────────────────────────────────────────────────────────────────────────────────</text><text class="terminal-1385209475-r5" x="1183.4" y="312.8" textLength="12.2" clip-path="url(#terminal-1385209475-line-12)">╯</text><text class="terminal-1385209475-r1" x="1220" y="312.8" textLength="12.2" clip-path="url(#terminal-1385209475-line-12)">
</text><text class="terminal-1385209475-r1" x="1220" y="337.2" textLength="12.2" clip-path="url(#terminal-1385209475-line-13)">
</text><text class="terminal-1385209475-r5" x="24.4" y="361.6" textLength="12.2" clip-path="url(#terminal-1385209475-line-14)">╭</text><text class="terminal-1385209475-r5" x="36.6" y="361.6" textLength="12.2" clip-path="url(#terminal-1385209475-line-14)">─</text><text class="terminal-1385209475-r5" x="48.8" y="361.6" textLength="170.8" clip-path="url(#terminal-1385209475-line-14)">&#160;Manual&#160;Steps&#160;</text><text class="terminal-1385209475-r5" x="219.6" y="361.6" textLength="963.8" clip-path="url(#terminal-1385209475-line-14)">───────────────────────────────────────────────────────────────────────────────</text><text class="terminal-1385209475-r5" x="1183.4" y="361.6" textLength="12.2" clip-path="url(#terminal-1385209475-line-14)">╮</text><text class="terminal-1385209475-r1" x="1220" y="361.6" textLength="12.2" clip-path="url(#terminal-1385209475-line-14)">
</text><text class="terminal-1385209475-r5" x="24.4" y="386" textLength="12.2" clip-path="url(#terminal-1385209475-line-15)">│</text><text class="terminal-1385209475-r6" x="73.2" y="386" textLength="24.4" clip-path="url(#terminal-1385209475-line-15)">•&#160;</text><text class="terminal-1385209475-r2" x="97.6" y="386" textLength="48.8" clip-path="url(#terminal-1385209475-line-15)">[&#160;]&#160;</text><text class="terminal-1385209475-r7" x="146.4" y="386" textLength="414.8" clip-path="url(#terminal-1385209475-line-15)">brew&#160;install&#160;charmbracelet/tap/vhs</text><text class="terminal-1385209475-r2" x="561.2" y="386" textLength="36.6" clip-path="url(#terminal-1385209475-line-15)">&#160;→&#160;</text><text class="terminal-1385209475-r7" x="597.8" y="386" textLength="219.6" clip-path="url(#terminal-1385209475-line-15)">vhs&#160;demo/hero.tape</text><text class="terminal-1385209475-r5" x="1183.4" y="386" textLength="12.2" clip-path="url(#terminal-1385209475-line-15)">│</text><text class="terminal-1385209475-r1" x="1220" y="386" textLength="12.2" clip-path="url(#terminal-1385209475-line-15)">
</text><text class="terminal-1385209475-r5" x="24.4" y="410.4" textLength="12.2" clip-path="url(#terminal-1385209475-line-16)">│</text><text class="terminal-1385209475-r6" x="73.2" y="410.4" textLength="24.4" clip-path="url(#terminal-1385209475-line-16)">•&#160;</text><text class="terminal-1385209475-r2" x="97.6" y="410.4" textLength="134.2" clip-path="url(#terminal-1385209475-line-16)">[&#160;]&#160;Upload&#160;</text><text class="terminal-1385209475-r7" x="231.8" y="410.4" textLength="280.6" clip-path="url(#terminal-1385209475-line-16)">demo/social-preview.png</text><text class="terminal-1385209475-r2" x="512.4" y="410.4" textLength="427" clip-path="url(#terminal-1385209475-line-16)">&#160;→&#160;GitHub&#160;Settings&#160;&gt;&#160;Social&#160;Preview</text><text class="terminal-1385209475-r5" x="1183.4" y="410.4" textLength="12.2" clip-path="url(#terminal-1385209475-line-16)">│</text><text class="terminal-1385209475-r1" x="1220" y="410.4" textLength="12.2" clip-path="url(#terminal-1385209475-line-16)">
</text><text class="terminal-1385209475-r5" x="24.4" y="434.8" textLength="12.2" clip-path="url(#terminal-1385209475-line-17)">│</text><text class="terminal-1385209475-r6" x="73.2" y="434.8" textLength="24.4" clip-path="url(#terminal-1385209475-line-17)">•&#160;</text><text class="terminal-1385209475-r2" x="97.6" y="434.8" textLength="488" clip-path="url(#terminal-1385209475-line-17)">[&#160;]&#160;Uncomment&#160;GIF&#160;placeholders&#160;in&#160;README</text><text class="terminal-1385209475-r5" x="1183.4" y="434.8" textLength="12.2" clip-path="url(#terminal-1385209475-line-17)">│</text><text class="terminal-1385209475-r1" x="1220" y="434.8" textLength="12.2" clip-path="url(#terminal-1385209475-line-17)">
</text><text class="terminal-1385209475-r5" x="24.4" y="459.2" textLength="12.2" clip-path="url(#terminal-1385209475-line-18)">│</text><text class="terminal-1385209475-r6" x="73.2" y="459.2" textLength="24.4" clip-path="url(#terminal-1385209475-line-18)">•&#160;</text><text class="terminal-1385209475-r2" x="97.6" y="459.2" textLength="170.8" clip-path="url(#terminal-1385209475-line-18)">[&#160;]&#160;Submit&#160;to&#160;</text><text class="terminal-1385209475-r7" x="268.4" y="459.2" textLength="231.8" clip-path="url(#terminal-1385209475-line-18)">awesome-mcp-servers</text><text class="terminal-1385209475-r2" x="500.2" y="459.2" textLength="24.4" clip-path="url(#terminal-1385209475-line-18)">,&#160;</text><text class="terminal-1385209475-r7" x="524.6" y="459.2" textLength="146.4" clip-path="url(#terminal-1385209475-line-18)">awesome-tuis</text><text class="terminal-1385209475-r2" x="671" y="459.2" textLength="244" clip-path="url(#terminal-1385209475-line-18)">,&#160;Claude&#160;marketplace</text><text class="terminal-1385209475-r5" x="1183.4" y="459.2" textLength="12.2" clip-path="url(#terminal-1385209475-line-18)">│</text><text class="terminal-1385209475-r1" x="1220" y="459.2" textLength="12.2" clip-path="url(#terminal-1385209475-line-18)">
</text><text class="terminal-1385209475-r5" x="24.4" y="483.6" textLength="12.2" clip-path="url(#terminal-1385209475-line-19)">│</text><text class="terminal-1385209475-r5" x="1183.4" y="483.6" textLength="12.2" clip-path="url(#terminal-1385209475-line-19)">│</text><text class="terminal-1385209475-r1" x="1220" y="483.6" textLength="12.2" clip-path="url(#terminal-1385209475-line-19)">
</text><text class="terminal-1385209475-r5" x="24.4" y="508" textLength="12.2" clip-path="url(#terminal-1385209475-line-20)">╰</text><text class="terminal-1385209475-r5" x="36.6" y="508" textLength="1146.8" clip-path="url(#terminal-1385209475-line-20)">──────────────────────────────────────────────────────────────────────────────────────────────</text><text class="terminal-1385209475-r5" x="1183.4" y="508" textLength="12.2" clip-path="url(#terminal-1385209475-line-20)">╯</text><text class="terminal-1385209475-r1" x="1220" y="508" textLength="12.2" clip-path="url(#terminal-1385209475-line-20)">
</text><text class="terminal-1385209475-r1" x="1220" y="532.4" textLength="12.2" clip-path="url(#terminal-1385209475-line-21)">
</text><text class="terminal-1385209475-r1" x="1220" y="556.8" textLength="12.2" clip-path="url(#terminal-1385209475-line-22)">
</text><text class="terminal-1385209475-r1" x="1220" y="581.2" textLength="12.2" clip-path="url(#terminal-1385209475-line-23)">
</text><text class="terminal-1385209475-r1" x="1220" y="605.6" textLength="12.2" clip-path="url(#terminal-1385209475-line-24)">
</text><text class="terminal-1385209475-r1" x="1220" y="630" textLength="12.2" clip-path="url(#terminal-1385209475-line-25)">
</text><text class="terminal-1385209475-r1" x="1220" y="654.4" textLength="12.2" clip-path="url(#terminal-1385209475-line-26)">
</text><text class="terminal-1385209475-r1" x="1220" y="678.8" textLength="12.2" clip-path="url(#terminal-1385209475-line-27)">
</text><text class="terminal-1385209475-r1" x="1220" y="703.2" textLength="12.2" clip-path="url(#terminal-1385209475-line-28)">
</text><text class="terminal-1385209475-r8" x="12.2" y="727.6" textLength="268.4" clip-path="url(#terminal-1385209475-line-29)">&#160;Last&#160;updated:&#160;10m&#160;ago</text>
    </g>
    </g>
</svg>
