<svg class="rich-terminal" viewBox="0 0 1238 782.0" xmlns="http://www.w3.org/2000/svg">
    <!-- Generated with Rich https://www.textualize.io -->
    <style>

    @font-face {
        font-family: "Fira Code";
        src: local("FiraCode-Regular"),
                url("https://cdnjs.cloudflare.com/ajax/libs/firacode/6.2.0/woff2/FiraCode-Regular.woff2") format("woff2"),
                url("https://cdnjs.cloudflare.com/ajax/libs/firacode/6.2.0/woff/FiraCode-Regular.woff") format("woff");
        font-style: normal;
        font-weight: 400;
    }
    @font-face {
        font-family: "Fira Code";
        src: local("FiraCode-Bold"),
                url("https://cdnjs.cloudflare.com/ajax/libs/firacode/6.2.0/woff2/FiraCode-Bold.woff2") format("woff2"),
                url("https://cdnjs.cloudflare.com/ajax/libs/firacode/6.2.0/woff/FiraCode-Bold.woff") format("woff");
        font-style: bold;
        font-weight: 700;
    }

    .terminal-2127949371-matrix {
        font-family: Fira Code, monospace;
        font-size: 20px;
        line-height: 24.4px;
        font-variant-east-asian: full-width;
    }

    .terminal-2127949371-title {
        font-size: 18px;
        font-weight: bold;
        font-family: arial;
    }

    .terminal-2127949371-r1 { fill: #c5c8c6 }
.terminal-2127949371-r2 { fill: #e0e0e0 }
.terminal-2127949371-r3 { fill: #9e9e9e }
.terminal-2127949371-r4 { fill: #58d1eb;font-weight: bold }
.terminal-2127949371-r5 { fill: #58d1eb }
.terminal-2127949371-r6 { fill: #57a5e2 }
.terminal-2127949371-r7 { fill: #f4bc6e }
.terminal-2127949371-r8 { fill: #99b3d4 }
    </style>

    <defs>
    <clipPath id="terminal-2127949371-clip-terminal">
      <rect x="0" y="0" width="1219.0" height="731.0" />
    </clipPath>
    <clipPath id="terminal-2127949371-line-0">
    <rect x="0" y="1.5" width="1220" height="24.65"/>
            </clipPath>
<clipPath id="terminal-2127949371-line-1">
    <rect x="0" y="25.9" width="1220" height="24.65"/>
            </clipPath>
<clipPath id="terminal-2127949371-line-2">
    <rect x="0" y="50.3" width="1220" height="24.65"/>
            </clipPath>
<clipPath id="terminal-2127949371-line-3">
    <rect x="0" y="74.7" width="1220" height="24.65"/>
            </clipPath>
<clipPath id="terminal-2127949371-line-4">
    <rect x="0" y="99.1" width="1220" height="24.65"/>
            </clipPath>
<clipPath id="terminal-2127949371-line-5">
    <rect x="0" y="123.5" width="1220" height="24.65"/>
            </clipPath>
<clipPath id="terminal-2127949371-line-6">
    <rect x="0" y="147.9" width="1220" height="24.65"/>
            </clipPath>
<clipPath id="terminal-2127949371-line-7">
    <rect x="0" y="172.3" width="1220" height="24.65"/>
            </clipPath>
<clipPath id="terminal-2127949371-line-8">
    <rect x="0" y="196.7" width="1220" height="24.65"/>
            </clipPath>
<clipPath id="terminal-2127949371-line-9">
    <rect x="0" y="221.1" width="1220" height="24.65"/>
            </clipPath>
<clipPath id="terminal-2127949371-line-10">
    <rect x="0" y="245.5" width="1220" height="24.65"/>
            </clipPath>
<clipPath id="terminal-2127949371-line-11">
    <rect x="0" y="269.9" width="1220" height="24.65"/>
            </clipPath>
<clipPath id="terminal-2127949371-line-12">
    <rect x="0" y="294.3" width="1220" height="24.65"/>
            </clipPath>
<clipPath id="terminal-2127949371-line-13">
    <rect x="0" y="318.7" width="1220" height="24.65"/>
            </clipPath>
<clipPath id="terminal-2127949371-line-14">
    <rect x="0" y="343.1" width="1220" height="24.65"/>
            </clipPath>
<clipPath id="terminal-2127949371-line-15">
    <rect x="0" y="367.5" width="1220" height="24.65"/>
            </clipPath>
<clipPath id="terminal-2127949371-line-16">
    <rect x="0" y="391.9" width="1220" height="24.65"/>
            </clipPath>
<clipPath id="terminal-2127949371-line-17">
    <rect x="0" y="416.3" width="1220" height="24.65"/>
            </clipPath>
<clipPath id="terminal-2127949371-line-18">
    <rect x="0" y="440.7" width="1220" height="24.65"/>
            </clipPath>
<clipPath id="terminal-2127949371-line-19">
    <rect x="0" y="465.1" width="1220" height="24.65"/>
            </clipPath>
<clipPath id="terminal-2127949371-line-20">
    <rect x="0" y="489.5" width="1220" height="24.65"/>
            </clipPath>
<clipPath id="terminal-2127949371-line-21">
    <rect x="0" y="513.9" width="1220" height="24.65"/>
            </clipPath>
<clipPath id="terminal-2127949371-line-22">
    <rect x="0" y="538.3" width="1220" height="24.65"/>
            </clipPath>
<clipPath id="terminal-2127949371-line-23">
    <rect x="0" y="562.7" width="1220" height="24.65"/>
            </clipPath>
<clipPath id="terminal-2127949371-line-24">
    <rect x="0" y="587.1" width="1220" height="24.65"/>
            </clipPath>
<clipPath id="terminal-2127949371-line-25">
    <rect x="0" y="611.5" width="1220" height="24.65"/>
            </clipPath>
<clipPath id="terminal-2127949371-line-26">
    <rect x="0" y="635.9" width="1220" height="24.65"/>
            </clipPath>
<clipPath id="terminal-2127949371-line-27">
    <rect x="0" y="660.3" width="1220" height="24.65"/>
            </clipPath>
<clipPath id="terminal-2127949371-line-28">
    <rect x="0" y="684.7" width="1220" height="24.65"/>
            </clipPath>
    </defs>

    <rect fill="#292929" stroke="rgba(255,255,255,0.35)" stroke-width="1" x="1" y="1" width="1236" height="780" rx="8"/><text class="terminal-2127949371-title" fill="#c5c8c6" text-anchor="middle" x="618" y="27">Claude&#160;Panel</text>
            <g transform="translate(26,22)">
            <circle cx="0" cy="0" r="7" fill="#ff5f57"/>
            <circle cx="22" cy="0" r="7" fill="#febc2e"/>
            <circle cx="44" cy="0" r="7" fill="#28c840"/>
            </g>
        
    <g transform="translate(9, 41)" clip-path="url(#terminal-2127949371-clip-terminal)">
    <rect fill="#0053aa" x="0" y="1.5" width="12.2" height="24.65" shape-rendering="crispEdges"/><rect fill="#0053aa" x="12.2" y="1.5" width="12.2" height="24.65" shape-rendering="crispEdges"/><rect fill="#0053aa" x="24.4" y="1.5" width="61" height="24.65" shape-rendering="crispEdges"/><rect fill="#0053aa" x="85.4" y="1.5" width="12.2" height="24.65" shape-rendering="crispEdges"/><rect fill="#0053aa" x="97.6" y="1.5" width="427" height="24.65" shape-rendering="crispEdges"/><rect fill="#0053aa" x="524.6" y="1.5" width="146.4" height="24.65" shape-rendering="crispEdges"/><rect fill="#0053aa" x="671" y="1.5" width="427" height="24.65" shape-rendering="crispEdges"/><rect fill="#0053aa" x="1098" y="1.5" width="12.2" height="24.65" shape-rendering="crispEdges"/><rect fill="#0053aa" x="1110.2" y="1.5" width="0" height="24.65" shape-rendering="crispEdges"/><rect fill="#0053aa" x="1110.2" y="1.5" width="97.6" height="24.65" shape-rendering="crispEdges"/><rect fill="#0053aa" x="1207.8" y="1.5" width="12.2" height="24.65" shape-rendering="crispEdges"/><rect fill="#1e1e1e" x="0" y="25.9" width="1220" height="24.65" shape-rendering="crispEdges"/><rect fill="#1e1e1e" x="0" y="50.3" width="24.4" height="24.65" shape-rendering="crispEdges"/><rect fill="#1e1e1e" x="24.4" y="50.3" width="378.2" height="24.65" shape-rendering="crispEdges"/><rect fill="#1e1e1e" x="402.6" y="50.3" width="97.6" height="24.65" shape-rendering="crispEdges"/><rect fill="#1e1e1e" x="500.2" y="50.3" width="24.4" height="24.65" shape-rendering="crispEdges"/><rect fill="#1e1e1e" x="524.6" y="50.3" width="122" height="24.65" shape-rendering="crispEdges"/><rect fill="#1e1e1e" x="646.6" y="50.3" width="24.4" height="24.65" shape-rendering="crispEdges"/><rect fill="#1e1e1e" x="671" y="50.3" width="134.2" height="24.65" shape-rendering="crispEdges"/><rect fill="#1e1e1e" x="805.2" y="50.3" width="390.4" height="24.65" shape-rendering="crispEdges"/><rect fill="#1e1e1e" x="1195.6" y="50.3" width="24.4" height="24.65" shape-rendering="crispEdges"/><rect fill="#1e1e1e" x="0" y="74.7" width="24.4" height="24.65" shape-rendering="crispEdges"/><rect fill="#1e1e1e" x="24.4" y="74.7" width="1171.2" height="24.65" shape-rendering="crispEdges"/><rect fill="#1e1e1e" x="1195.6" y="74.7" width="24.4" height="24.65" shape-rendering="crispEdges"/><rect fill="#1e1e1e" x="0" y="99.1" width="24.4" height="24.65" shape-rendering="crispEdges"/><rect fill="#1e1e1e" x="24.4" y="99.1" width="12.2" height="24.65" shape-rendering="crispEdges"/><rect fill="#1e1e1e" x="36.6" y="99.1" width="12.2" height="24.65" shape-rendering="crispEdges"/><rect fill="#1e1e1e" x="48.8" y="99.1" width="170.8" height="24.65" shape-rendering="crispEdges"/><rect fill="#1e1e1e" x="219.6" y="99.1" width="963.8" height="24.65" shape-rendering="crispEdges"/><rect fill="#1e1e1e" x="1183.4" y="99.1" width="12.2" height="24.65" shape-rendering="crispEdges"/><rect fill="#1e1e1e" x="1195.6" y="99.1" width="24.4" height="24.65" shape-rendering="crispEdges"/><rect fill="#1e1e1e" x="0" y="123.5" width="24.4" height="24.65" shape-rendering="crispEdges"/><rect fill="#1e1e1e" x="24.4" y="123.5" width="12.2" height="24.65" shape-rendering="crispEdges"/><rect fill="#1e1e1e" x="36.6" y="123.5" width="12.2" height="24.65" shape-rendering="crispEdges"/><rect fill="#1e1e1e" x="48.8" y="123.5" width="24.4" height="24.65" shape-rendering="crispEdges"/><rect fill="#1e1e1e" x="73.2" y="123.5" width="549" height="24.65" shape-rendering="crispEdges"/><rect fill="#1e1e1e" x="622.2" y="123.5" width="524.6" height="24.65" shape-rendering="crispEdges"/><rect fill="#1e1e1e" x="1146.8" y="123.5" width="24.4" height="24.65" shape-rendering="crispEdges"/><rect fill="#1e1e1e" x="1171.2" y="123.5" width="12.2" height="24.65" shape-rendering="crispEdges"/><rect fill="#1e1e1e" x="1183.4" y="123.5" width="12.2" height="24.65" shape-rendering="crispEdges"/><rect fill="#1e1e1e" x="1195.6" y="123.5" width="24.4" height="24.65" shape-rendering="crispEdges"/><rect fill="#1e1e1e" x="0" y="147.9" width="24.4" height="24.65" shape-rendering="crispEdges"/><rect fill="#1e1e1e" x="24.4" y="147.9" width="12.2" height="24.65" shape-rendering="crispEdges"/><rect fill="#1e1e1e" x="36.6" y="147.9" width="12.2" height="24.65" shape-rendering="crispEdges"/><rect fill="#1e1e1e" x="48.8" y="147.9" width="24.4" height="24.65" shape-rendering="crispEdges"/><rect fill="#1e1e1e" x="73.2" y="147.9" width="1073.6" height="24.65" shape-rendering="crispEdges"/><rect fill="#1e1e1e" x="1146.8" y="147.9" width="24.4" height="24.65" shape-rendering="crispEdges"/><rect fill="#1e1e1e" x="1171.2" y="147.9" width="12.2" height="24.65" shape-rendering="crispEdges"/><rect fill="#1e1e1e" x="1183.4" y="147.9" width="12.2" height="24.65" shape-rendering="crispEdges"/><rect fill="#1e1e1e" x="1195.6" y="147.9" width="24.4" height="24.65" shape-rendering="crispEdges"/><rect fill="#1e1e1e" x="0" y="172.3" width="24.4" height="24.65" shape-rendering="crispEdges"/><rect fill="#1e1e1e" x="24.4" y="172.3" width="12.2" height="24.65" shape-rendering="crispEdges"/><rect fill="#1e1e1e" x="36.6" y="172.3" width="1146.8" height="24.65" shape-rendering="crispEdges"/><rect fill="#1e1e1e" x="1183.4" y="172.3" width="12.2" height="24.65" shape-rendering="crispEdges"/><rect fill="#1e1e1e" x="1195.6" y="172.3" width="24.4" height="24.65" shape-rendering="crispEdges"/><rect fill="#1e1e1e" x="0" y="196.7" width="24.4" height="24.65" shape-rendering="crispEdges"/><rect fill="#1e1e1e" x="24.4" y="196.7" width="1171.2" height="24.65" shape-rendering="crispEdges"/><rect fill="#1e1e1e" x="1195.6" y="196.7" width="24.4" height="24.65" shape-rendering="crispEdges"/><rect fill="#1e1e1e" x="0" y="221.1" width="24.4" height="24.65" shape-rendering="crispEdges"/><rect fill="#1e1e1e" x="24.4" y="221.1" width="12.2" height="24.65" shape-rendering="crispEdges"/><rect fill="#1e1e1e" x="36.6" y="221.1" width="12.2" height="24.65" shape-rendering="crispEdges"/><rect fill="#1e1e1e" x="48.8" y="221.1" width="183" height="24.65" shape-rendering="crispEdges"/><rect fill="#1e1e1e" x="231.8" y="221.1" width="951.6" height="24.65" shape-rendering="crispEdges"/><rect fill="#1e1e1e" x="1183.4" y="221.1" width="12.2" height="24.65" shape-rendering="crispEdges"/><rect fill="#1e1e1e" x="1195.6" y="221.1" width="24.4" height="24.65" shape-rendering="crispEdges"/><rect fill="#1e1e1e" x="0" y="245.5" width="24.4" height="24.65" shape-rendering="crispEdges"/><rect fill="#1e1e1e" x="24.4" y="245.5" width="12.2" height="24.65" shape-rendering="crispEdges"/><rect fill="#1e1e1e" x="36.6" y="245.5" width="12.2" height="24.65" shape-rendering="crispEdges"/><rect fill="#1e1e1e" x="48.8" y="245.5" width="24.4" height="24.65" shape-rendering="crispEdges"/><rect fill="#1e1e1e" x="73.2" y="245.5" width="24.4" height="24.65" shape-rendering="crispEdges"/><rect fill="#2f281e" x="97.6" y="245.5" width="109.8" height="24.65" shape-rendering="crispEdges"/><rect fill="#1e1e1e" x="207.4" y="245.5" width="817.4" height="24.65" shape-rendering="crispEdges"/><rect fill="#1e1e1e" x="1024.8" y="245.5" width="122" height="24.65" shape-rendering="crispEdges"/><rect fill="#1e1e1e" x="1146.8" y="245.5" width="24.4" height="24.65" shape-rendering="crispEdges"/><rect fill="#1e1e1e" x="1171.2" y="245.5" width="12.2" height="24.65" shape-rendering="crispEdges"/><rect fill="#1e1e1e" x="1183.4" y="245.5" width="12.2" height="24.65" shape-rendering="crispEdges"/><rect fill="#1e1e1e" x="1195.6" y="245.5" width="24.4" height="24.65" shape-rendering="crispEdges"/><rect fill="#1e1e1e" x="0" y="269.9" width="24.4" height="24.65" shape-rendering="crispEdges"/><rect fill="#1e1e1e" x="24.4" y="269.9" width="12.2" height="24.65" shape-rendering="crispEdges"/><rect fill="#1e1e1e" x="36.6" y="269.9" width="12.2" height="24.65" shape-rendering="crispEdges"/><rect fill="#1e1e1e" x="48.8" y="269.9" width="24.4" height="24.65" shape-rendering="crispEdges"/><rect fill="#1e1e1e" x="73.2" y="269.9" width="24.4" height="24.65" shape-rendering="crispEdges"/><rect fill="#2f281e" x="97.6" y="269.9" width="183" height="24.65" shape-rendering="crispEdges"/><rect fill="#1e1e1e" x="280.6" y="269.9" width="402.6" height="24.65" shape-rendering="crispEdges"/><rect fill="#1e1e1e" x="683.2" y="269.9" width="463.6" height="24.65" shape-rendering="crispEdges"/><rect fill="#1e1e1e" x="1146.8" y="269.9" width="24.4" height="24.65" shape-rendering="crispEdges"/><rect fill="#1e1e1e" x="1171.2" y="269.9" width="12.2" height="24.65" shape-rendering="crispEdges"/><rect fill="#1e1e1e" x="1183.4" y="269.9" width="12.2" height="24.65" shape-rendering="crispEdges"/><rect fill="#1e1e1e" x="1195.6" y="269.9" width="24.4" height="24.65" shape-rendering="crispEdges"/><rect fill="#1e1e1e" x="0" y="294.3" width="24.4" height="24.65" shape-rendering="crispEdges"/><rect fill="#1e1e1e" x="24.4" y="294.3" width="12.2" height="24.65" shape-rendering="crispEdges"/><rect fill="#1e1e1e" x="36.6" y="294.3" width="12.2" height="24.65" shape-rendering="crispEdges"/><rect fill="#1e1e1e" x="48.8" y="294.3" width="24.4" height="24.65" shape-rendering="crispEdges"/><rect fill="#1e1e1e" x="73.2" y="294.3" width="24.4" height="24.65" shape-rendering="crispEdges"/><rect fill="#2f281e" x="97.6" y="294.3" width="280.6" height="24.65" shape-rendering="crispEdges"/><rect fill="#1e1e1e" x="378.2" y="294.3" width="500.2" height="24.65" shape-rendering="crispEdges"/><rect fill="#1e1e1e" x="878.4" y="294.3" width="268.4" height="24.65" shape-rendering="crispEdges"/><rect fill="#1e1e1e" x="1146.8" y="294.3" width="24.4" height="24.65" shape-rendering="crispEdges"/><rect fill="#1e1e1e" x="1171.2" y="294.3" width="12.2" height="24.65" shape-rendering="crispEdges"/><rect fill="#1e1e1e" x="1183.4" y="294.3" width="12.2" height="24.65" shape-rendering="crispEdges"/><rect fill="#1e1e1e" x="1195.6" y="294.3" width="24.4" height="24.65" shape-rendering="crispEdges"/><rect fill="#1e1e1e" x="0" y="318.7" width="24.4" height="24.65" shape-rendering="crispEdges"/><rect fill="#1e1e1e" x="24.4" y="318.7" width="12.2" height="24.65" shape-rendering="crispEdges"/><rect fill="#1e1e1e" x="36.6" y="318.7" width="12.2" height="24.65" shape-rendering="crispEdges"/><rect fill="#1e1e1e" x="48.8" y="318.7" width="24.4" height="24.65" shape-rendering="crispEdges"/><rect fill="#1e1e1e" x="73.2" y="318.7" width="24.4" height="24.65" shape-rendering="crispEdges"/><rect fill="#2f281e" x="97.6" y="318.7" width="170.8" height="24.65" shape-rendering="crispEdges"/><rect fill="#1e1e1e" x="268.4" y="318.7" width="24.4" height="24.65" shape-rendering="crispEdges"/><rect fill="#2f281e" x="292.8" y="318.7" width="207.4" height="24.65" shape-rendering="crispEdges"/><rect fill="#1e1e1e" x="500.2" y="318.7" width="24.4" height="24.65" shape-rendering="crispEdges"/><rect fill="#2f281e" x="524.6" y="318.7" width="146.4" height="24.65" shape-rendering="crispEdges"/><rect fill="#1e1e1e" x="671" y="318.7" width="292.8" height="24.65" shape-rendering="crispEdges"/><rect fill="#1e1e1e" x="963.8" y="318.7" width="183" height="24.65" shape-rendering="crispEdges"/><rect fill="#1e1e1e" x="1146.8" y="318.7" width="24.4" height="24.65" shape-rendering="crispEdges"/><rect fill="#1e1e1e" x="1171.2" y="318.7" width="12.2" height="24.65" shape-rendering="crispEdges"/><rect fill="#1e1e1e" x="1183.4" y="318.7" width="12.2" height="24.65" shape-rendering="crispEdges"/><rect fill="#1e1e1e" x="1195.6" y="318.7" width="24.4" height="24.65" shape-rendering="crispEdges"/><rect fill="#1e1e1e" x="0" y="343.1" width="24.4" height="24.65" shape-rendering="crispEdges"/><rect fill="#1e1e1e" x="24.4" y="343.1" width="12.2" height="24.65" shape-rendering="crispEdges"/><rect fill="#1e1e1e" x="36.6" y="343.1" width="12.2" height="24.65" shape-rendering="crispEdges"/><rect fill="#1e1e1e" x="48.8" y="343.1" width="24.4" height="24.65" shape-rendering="crispEdges"/><rect fill="#1e1e1e" x="73.2" y="343.1" width="24.4" height="24.65" shape-rendering="crispEdges"/><rect fill="#2f281e" x="97.6" y="343.1" width="280.6" height="24.65" shape-rendering="crispEdges"/><rect fill="#1e1e1e" x="378.2" y="343.1" width="280.6" height="24.65" shape-rendering="crispEdges"/><rect fill="#1e1e1e" x="658.8" y="343.1" width="488" height="24.65" shape-rendering="crispEdges"/><rect fill="#1e1e1e" x="1146.8" y="343.1" width="24.4" height="24.65" shape-rendering="crispEdges"/><rect fill="#1e1e1e" x="1171.2" y="343.1" width="12.2" height="24.65" shape-rendering="crispEdges"/><rect fill="#1e1e1e" x="1183.4" y="343.1" width="12.2" height="24.65" shape-rendering="crispEdges"/><rect fill="#1e1e1e" x="1195.6" y="343.1" width="24.4" height="24.65" shape-rendering="crispEdges"/><rect fill="#1e1e1e" x="0" y="367.5" width="24.4" height="24.65" shape-rendering="crispEdges"/><rect fill="#1e1e1e" x="24.4" y="367.5" width="12.2" height="24.65" shape-rendering="crispEdges"/><rect fill="#1e1e1e" x="36.6" y="367.5" width="12.2" height="24.65" shape-rendering="crispEdges"/><rect fill="#1e1e1e" x="48.8" y="367.5" width="24.4" height="24.65" shape-rendering="crispEdges"/><rect fill="#1e1e1e" x="73.2" y="367.5" width="24.4" height="24.65" shape-rendering="crispEdges"/><rect fill="#2f281e" x="97.6" y="367.5" width="122" height="24.65" shape-rendering="crispEdges"/><rect fill="#1e1e1e" x="219.6" y="367.5" width="36.6" height="24.65" shape-rendering="crispEdges"/><rect fill="#2f281e" x="256.2" y="367.5" width="122" height="24.65" shape-rendering="crispEdges"/><rect fill="#1e1e1e" x="378.2" y="367.5" width="109.8" height="24.65" shape-rendering="crispEdges"/><rect fill="#1e1e1e" x="488" y="367.5" width="658.8" height="24.65" shape-rendering="crispEdges"/><rect fill="#1e1e1e" x="1146.8" y="367.5" width="24.4" height="24.65" shape-rendering="crispEdges"/><rect fill="#1e1e1e" x="1171.2" y="367.5" width="12.2" height="24.65" shape-rendering="crispEdges"/><rect fill="#1e1e1e" x="1183.4" y="367.5" width="12.2" height="24.65" shape-rendering="crispEdges"/><rect fill="#1e1e1e" x="1195.6" y="367.5" width="24.4" height="24.65" shape-rendering="crispEdges"/><rect fill="#1e1e1e" x="0" y="391.9" width="24.4" height="24.65" shape-rendering="crispEdges"/><rect fill="#1e1e1e" x="24.4" y="391.9" width="12.2" height="24.65" shape-rendering="crispEdges"/><rect fill="#1e1e1e" x="36.6" y="391.9" width="12.2" height="24.65" shape-rendering="crispEdges"/><rect fill="#1e1e1e" x="48.8" y="391.9" width="24.4" height="24.65" shape-rendering="crispEdges"/><rect fill="#1e1e1e" x="73.2" y="391.9" width="1073.6" height="24.65" shape-rendering="crispEdges"/><rect fill="#1e1e1e" x="1146.8" y="391.9" width="24.4" height="24.65" shape-rendering="crispEdges"/><rect fill="#1e1e1e" x="1171.2" y="391.9" width="12.2" height="24.65" shape-rendering="crispEdges"/><rect fill="#1e1e1e" x="1183.4" y="391.9" width="12.2" height="24.65" shape-rendering="crispEdges"/><rect fill="#1e1e1e" x="1195.6" y="391.9" width="24.4" height="24.65" shape-rendering="crispEdges"/><rect fill="#1e1e1e" x="0" y="416.3" width="24.4" height="24.65" shape-rendering="crispEdges"/><rect fill="#1e1e1e" x="24.4" y="416.3" width="12.2" height="24.65" shape-rendering="crispEdges"/><rect fill="#1e1e1e" x="36.6" y="416.3" width="1146.8" height="24.65" shape-rendering="crispEdges"/><rect fill="#1e1e1e" x="1183.4" y="416.3" width="12.2" height="24.65" shape-rendering="crispEdges"/><rect fill="#1e1e1e" x="1195.6" y="416.3" width="24.4" height="24.65" shape-rendering="crispEdges"/><rect fill="#1e1e1e" x="0" y="440.7" width="24.4" height="24.65" shape-rendering="crispEdges"/><rect fill="#1e1e1e" x="24.4" y="440.7" width="1171.2" height="24.65" shape-rendering="crispEdges"/><rect fill="#1e1e1e" x="1195.6" y="440.7" width="24.4" height="24.65" shape-rendering="crispEdges"/><rect fill="#1e1e1e" x="0" y="465.1" width="24.4" height="24.65" shape-rendering="crispEdges"/><rect fill="#1e1e1e" x="24.4" y="465.1" width="12.2" height="24.65" shape-rendering="crispEdges"/><rect fill="#1e1e1e" x="36.6" y="465.1" width="12.2" height="24.65" shape-rendering="crispEdges"/><rect fill="#1e1e1e" x="48.8" y="465.1" width="134.2" height="24.65" shape-rendering="crispEdges"/><rect fill="#1e1e1e" x="183" y="465.1" width="1000.4" height="24.65" shape-rendering="crispEdges"/><rect fill="#1e1e1e" x="1183.4" y="465.1" width="12.2" height="24.65" shape-rendering="crispEdges"/><rect fill="#1e1e1e" x="1195.6" y="465.1" width="24.4" height="24.65" shape-rendering="crispEdges"/><rect fill="#1e1e1e" x="0" y="489.5" width="24.4" height="24.65" shape-rendering="crispEdges"/><rect fill="#1e1e1e" x="24.4" y="489.5" width="12.2" height="24.65" shape-rendering="crispEdges"/><rect fill="#1e1e1e" x="36.6" y="489.5" width="12.2" height="24.65" shape-rendering="crispEdges"/><rect fill="#1e1e1e" x="48.8" y="489.5" width="24.4" height="24.65" shape-rendering="crispEdges"/><rect fill="#1e1e1e" x="73.2" y="489.5" width="24.4" height="24.65" shape-rendering="crispEdges"/><rect fill="#1e1e1e" x="97.6" y="489.5" width="866.2" height="24.65" shape-rendering="crispEdges"/><rect fill="#1e1e1e" x="963.8" y="489.5" width="183" height="24.65" shape-rendering="crispEdges"/><rect fill="#1e1e1e" x="1146.8" y="489.5" width="24.4" height="24.65" shape-rendering="crispEdges"/><rect fill="#1e1e1e" x="1171.2" y="489.5" width="12.2" height="24.65" shape-rendering="crispEdges"/><rect fill="#1e1e1e" x="1183.4" y="489.5" width="12.2" height="24.65" shape-rendering="crispEdges"/><rect fill="#1e1e1e" x="1195.6" y="489.5" width="24.4" height="24.65" shape-rendering="crispEdges"/><rect fill="#1e1e1e" x="0" y="513.9" width="24.4" height="24.65" shape-rendering="crispEdges"/><rect fill="#1e1e1e" x="24.4" y="513.9" width="12.2" height="24.65" shape-rendering="crispEdges"/><rect fill="#1e1e1e" x="36.6" y="513.9" width="12.2" height="24.65" shape-rendering="crispEdges"/><rect fill="#1e1e1e" x="48.8" y="513.9" width="24.4" height="24.65" shape-rendering="crispEdges"/><rect fill="#1e1e1e" x="73.2" y="513.9" width="24.4" height="24.65" shape-rendering="crispEdges"/><rect fill="#1e1e1e" x="97.6" y="513.9" width="280.6" height="24.65" shape-rendering="crispEdges"/><rect fill="#2f281e" x="378.2" y="513.9" width="122" height="24.65" shape-rendering="crispEdges"/><rect fill="#1e1e1e" x="500.2" y="513.9" width="451.4" height="24.65" shape-rendering="crispEdges"/><rect fill="#1e1e1e" x="951.6" y="513.9" width="195.2" height="24.65" shape-rendering="crispEdges"/><rect fill="#1e1e1e" x="1146.8" y="513.9" width="24.4" height="24.65" shape-rendering="crispEdges"/><rect fill="#1e1e1e" x="1171.2" y="513.9" width="12.2" height="24.65" shape-rendering="crispEdges"/><rect fill="#1e1e1e" x="1183.4" y="513.9" width="12.2" height="24.65" shape-rendering="crispEdges"/><rect fill="#1e1e1e" x="1195.6" y="513.9" width="24.4" height="24.65" shape-rendering="crispEdges"/><rect fill="#1e1e1e" x="0" y="538.3" width="24.4" height="24.65" shape-rendering="crispEdges"/><rect fill="#1e1e1e" x="24.4" y="538.3" width="12.2" height="24.65" shape-rendering="crispEdges"/><rect fill="#1e1e1e" x="36.6" y="538.3" width="12.2" height="24.65" shape-rendering="crispEdges"/><rect fill="#1e1e1e" x="48.8" y="538.3" width="24.4" height="24.65" shape-rendering="crispEdges"/><rect fill="#1e1e1e" x="73.2" y="538.3" width="24.4" height="24.65" shape-rendering="crispEdges"/><rect fill="#1e1e1e" x="97.6" y="538.3" width="122" height="24.65" shape-rendering="crispEdges"/><rect fill="#2f281e" x="219.6" y="538.3" width="329.4" height="24.65" shape-rendering="crispEdges"/><rect fill="#1e1e1e" x="549" y="538.3" width="134.2" height="24.65" shape-rendering="crispEdges"/><rect fill="#1e1e1e" x="683.2" y="538.3" width="463.6" height="24.65" shape-rendering="crispEdges"/><rect fill="#1e1e1e" x="1146.8" y="538.3" width="24.4" height="24.65" shape-rendering="crispEdges"/><rect fill="#1e1e1e" x="1171.2" y="538.3" width="12.2" height="24.65" shape-rendering="crispEdges"/><rect fill="#1e1e1e" x="1183.4" y="538.3" width="12.2" height="24.65" shape-rendering="crispEdges"/><rect fill="#1e1e1e" x="1195.6" y="538.3" width="24.4" height="24.65" shape-rendering="crispEdges"/><rect fill="#1e1e1e" x="0" y="562.7" width="24.4" height="24.65" shape-rendering="crispEdges"/><rect fill="#1e1e1e" x="24.4" y="562.7" width="12.2" height="24.65" shape-rendering="crispEdges"/><rect fill="#1e1e1e" x="36.6" y="562.7" width="12.2" height="24.65" shape-rendering="crispEdges"/><rect fill="#1e1e1e" x="48.8" y="562.7" width="24.4" height="24.65" shape-rendering="crispEdges"/><rect fill="#1e1e1e" x="73.2" y="562.7" width="24.4" height="24.65" shape-rendering="crispEdges"/><rect fill="#1e1e1e" x="97.6" y="562.7" width="902.8" height="24.65" shape-rendering="crispEdges"/><rect fill="#1e1e1e" x="1000.4" y="562.7" width="146.4" height="24.65" shape-rendering="crispEdges"/><rect fill="#1e1e1e" x="1146.8" y="562.7" width="24.4" height="24.65" shape-rendering="crispEdges"/><rect fill="#1e1e1e" x="1171.2" y="562.7" width="12.2" height="24.65" shape-rendering="crispEdges"/><rect fill="#1e1e1e" x="1183.4" y="562.7" width="12.2" height="24.65" shape-rendering="crispEdges"/><rect fill="#1e1e1e" x="1195.6" y="562.7" width="24.4" height="24.65" shape-rendering="crispEdges"/><rect fill="#1e1e1e" x="0" y="587.1" width="24.4" height="24.65" shape-rendering="crispEdges"/><rect fill="#1e1e1e" x="24.4" y="587.1" width="12.2" height="24.65" shape-rendering="crispEdges"/><rect fill="#1e1e1e" x="36.6" y="587.1" width="12.2" height="24.65" shape-rendering="crispEdges"/><rect fill="#1e1e1e" x="48.8" y="587.1" width="24.4" height="24.65" shape-rendering="crispEdges"/><rect fill="#1e1e1e" x="73.2" y="587.1" width="1073.6" height="24.65" shape-rendering="crispEdges"/><rect fill="#1e1e1e" x="1146.8" y="587.1" width="24.4" height="24.65" shape-rendering="crispEdges"/><rect fill="#1e1e1e" x="1171.2" y="587.1" width="12.2" height="24.65" shape-rendering="crispEdges"/><rect fill="#1e1e1e" x="1183.4" y="587.1" width="12.2" height="24.65" shape-rendering="crispEdges"/><rect fill="#1e1e1e" x="1195.6" y="587.1" width="24.4" height="24.65" shape-rendering="crispEdges"/><rect fill="#1e1e1e" x="0" y="611.5" width="24.4" height="24.65" shape-rendering="crispEdges"/><rect fill="#1e1e1e" x="24.4" y="611.5" width="12.2" height="24.65" shape-rendering="crispEdges"/><rect fill="#1e1e1e" x="36.6" y="611.5" width="1146.8" height="24.65" shape-rendering="crispEdges"/><rect fill="#1e1e1e" x="1183.4" y="611.5" width="12.2" height="24.65" shape-rendering="crispEdges"/><rect fill="#1e1e1e" x="1195.6" y="611.5" width="24.4" height="24.65" shape-rendering="crispEdges"/><rect fill="#1e1e1e" x="0" y="635.9" width="24.4" height="24.65" shape-rendering="crispEdges"/><rect fill="#1e1e1e" x="24.4" y="635.9" width="1171.2" height="24.65" shape-rendering="crispEdges"/><rect fill="#1e1e1e" x="1195.6" y="635.9" width="24.4" height="24.65" shape-rendering="crispEdges"/><rect fill="#1e1e1e" x="0" y="660.3" width="24.4" height="24.65" shape-rendering="crispEdges"/><rect fill="#1e1e1e" x="24.4" y="660.3" width="1171.2" height="24.65" shape-rendering="crispEdges"/><rect fill="#1e1e1e" x="1195.6" y="660.3" width="24.4" height="24.65" shape-rendering="crispEdges"/><rect fill="#1e1e1e" x="0" y="684.7" width="1220" height="24.65" shape-rendering="crispEdges"/><rect fill="#004295" x="0" y="709.1" width="12.2" height="24.65" shape-rendering="crispEdges"/><rect fill="#004295" x="12.2" y="709.1" width="268.4" height="24.65" shape-rendering="crispEdges"/><rect fill="#004295" x="280.6" y="709.1" width="927.2" height="24.65" shape-rendering="crispEdges"/><rect fill="#004295" x="1207.8" y="709.1" width="12.2" height="24.65" shape-rendering="crispEdges"/>
    <g class="terminal-2127949371-matrix">
    <text class="terminal-2127949371-r2" x="12.2" y="20" textLength="12.2" clip-path="url(#terminal-2127949371-line-0)">⭘</text><text class="terminal-2127949371-r2" x="524.6" y="20" textLength="146.4" clip-path="url(#terminal-2127949371-line-0)">Claude&#160;Panel</text><text class="terminal-2127949371-r1" x="1220" y="20" textLength="12.2" clip-path="url(#terminal-2127949371-line-0)">
</text><text class="terminal-2127949371-r1" x="1220" y="44.4" textLength="12.2" clip-path="url(#terminal-2127949371-line-1)">
</text><text class="terminal-2127949371-r3" x="402.6" y="68.8" textLength="97.6" clip-path="url(#terminal-2127949371-line-2)">&#160;○&#160;main&#160;</text><text class="terminal-2127949371-r4" x="524.6" y="68.8" textLength="122" clip-path="url(#terminal-2127949371-line-2)">&#160;●&#160;status&#160;</text><text class="terminal-2127949371-r3" x="671" y="68.8" textLength="134.2" clip-path="url(#terminal-2127949371-line-2)">&#160;○&#160;ambient&#160;</text><text class="terminal-2127949371-r1" x="1220" y="68.8" textLength="12.2" clip-path="url(#terminal-2127949371-line-2)">
</text><text class="terminal-2127949371-r1" x="1220" y="93.2" textLength="12.2" clip-path="url(#terminal-2127949371-line-3)">
</text><text class="terminal-2127949371-r5" x="24.4" y="117.6" textLength="12.2" clip-path="url(#terminal-2127949371-line-4)">╭</text><text class="terminal-2127949371-r5" x="36.6" y="117.6" textLength="12.2" clip-path="url(#terminal-2127949371-line-4)">─</text><text class="terminal-2127949371-r5" x="48.8" y="117.6" textLength="170.8" clip-path="url(#terminal-2127949371-line-4)">&#160;Current&#160;Task&#160;</text><text class="terminal-2127949371-r5" x="219.6" y="117.6" textLength="963.8" clip-path="url(#terminal-2127949371-line-4)">───────────────────────────────────────────────────────────────────────────────</text><text class="terminal-2127949371-r5" x="1183.4" y="117.6" textLength="12.2" clip-path="url(#terminal-2127949371-line-4)">╮</text><text class="terminal-2127949371-r1" x="1220" y="117.6" textLength="12.2" clip-path="url(#terminal-2127949371-line-4)">
</text><text class="terminal-2127949371-r5" x="24.4" y="142" textLength="12.2" clip-path="url(#terminal-2127949371-line-5)">│</text><text class="terminal-2127949371-r2" x="73.2" y="142" textLength="549" clip-path="url(#terminal-2127949371-line-5)">GitHub&#160;launch&#160;prep&#160;done&#160;—&#160;manual&#160;steps&#160;remain</text><text class="terminal-2127949371-r5" x="1183.4" y="142" textLength="12.2" clip-path="url(#terminal-2127949371-line-5)">│</text><text class="terminal-2127949371-r1" x="1220" y="142" textLength="12.2" clip-path="url(#terminal-2127949371-line-5)">
</text><text class="terminal-2127949371-r5" x="24.4" y="166.4" textLength="12.2" clip-path="url(#terminal-2127949371-line-6)">│</text><text class="terminal-2127949371-r5" x="1183.4" y="166.4" textLength="12.2" clip-path="url(#terminal-2127949371-line-6)">│</text><text class="terminal-2127949371-r1" x="1220" y="166.4" textLength="12.2" clip-path="url(#terminal-2127949371-line-6)">
</text><text class="terminal-2127949371-r5" x="24.4" y="190.8" textLength="12.2" clip-path="url(#terminal-2127949371-line-7)">╰</text><text class="terminal-2127949371-r5" x="36.6" y="190.8" textLength="1146.8" clip-path="url(#terminal-2127949371-line-7)">──────────────────────────────────────────────────────────────────────────────────────────────</text><text class="terminal-2127949371-r5" x="1183.4" y="190.8" textLength="12.2" clip-path="url(#terminal-2127949371-line-7)">╯</text><text class="terminal-2127949371-r1" x="1220" y="190.8" textLength="12.2" clip-path="url(#terminal-2127949371-line-7)">
</text><text class="terminal-2127949371-r1" x="1220" y="215.2" textLength="12.2" clip-path="url(#terminal-2127949371-line-8)">
</text><text class="terminal-2127949371-r5" x="24.4" y="239.6" textLength="12.2" clip-path="url(#terminal-2127949371-line-9)">╭</text><text class="terminal-2127949371-r5" x="36.6" y="239.6" textLength="12.2" clip-path="url(#terminal-2127949371-line-9)">─</text><text class="terminal-2127949371-r5" x="48.8" y="239.6" textLength="183" clip-path="url(#terminal-2127949371-line-9)">&#160;Files&#160;Changed&#160;</text><text class="terminal-2127949371-r5" x="231.8" y="239.6" textLength="951.6" clip-path="url(#terminal-2127949371-line-9)">──────────────────────────────────────────────────────────────────────────────</text><text class="terminal-2127949371-r5" x="1183.4" y="239.6" textLength="12.2" clip-path="url(#terminal-2127949371-line-9)">╮</text><text class="terminal-2127949371-r1" x="1220" y="239.6" textLength="12.2" clip-path="url(#terminal-2127949371-line-9)">
</text><text class="terminal-2127949371-r5" x="24.4" y="264" textLength="12.2" clip-path="url(#terminal-2127949371-line-10)">│</text><text class="terminal-2127949371-r6" x="73.2" y="264" textLength="24.4" clip-path="url(#terminal-2127949371-line-10)">•&#160;</text><text class="terminal-2127949371-r7" x="97.6" y="264" textLength="109.8" clip-path="url(#terminal-2127949371-line-10)">README.md</text><text class="terminal-2127949371-r2" x="207.4" y="264" textLength="817.4" clip-path="url(#terminal-2127949371-line-10)">&#160;—&#160;overhauled&#160;with&#160;tagline,&#160;badges,&#160;feature&#160;table,&#160;GIF&#160;placeholders</text><text class="terminal-2127949371-r5" x="1183.4" y="264" textLength="12.2" clip-path="url(#terminal-2127949371-line-10)">│</text><text class="terminal-2127949371-r1" x="1220" y="264" textLength="12.2" clip-path="url(#terminal-2127949371-line-10)">
</text><text class="terminal-2127949371-r5" x="24.4" y="288.4" textLength="12.2" clip-path="url(#terminal-2127949371-line-11)">│</text><text class="terminal-2127949371-r6" x="73.2" y="288.4" textLength="24.4" clip-path="url(#terminal-2127949371-line-11)">•&#160;</text><text class="terminal-2127949371-r7" x="97.6" y="288.4" textLength="183" clip-path="url(#terminal-2127949371-line-11)">CONTRIBUTING.md</text><text class="terminal-2127949371-r2" x="280.6" y="288.4" textLength="402.6" clip-path="url(#terminal-2127949371-line-11)">&#160;—&#160;screensaver&#160;contribution&#160;guide</text><text class="terminal-2127949371-r5" x="1183.4" y="288.4" textLength="12.2" clip-path="url(#terminal-2127949371-line-11)">│</text><text class="terminal-2127949371-r1" x="1220" y="288.4" textLength="12.2" clip-path="url(#terminal-2127949371-line-11)">
</text><text class="terminal-2127949371-r5" x="24.4" y="312.8" textLength="12.2" clip-path="url(#terminal-2127949371-line-12)">│</text><text class="terminal-2127949371-r6" x="73.2" y="312.8" textLength="24.4" clip-path="url(#terminal-2127949371-line-12)">•&#160;</text><text class="terminal-2127949371-r7" x="97.6" y="312.8" textLength="280.6" clip-path="url(#terminal-2127949371-line-12)">.github/ISSUE_TEMPLATE/</text><text class="terminal-2127949371-r2" x="378.2" y="312.8" textLength="500.2" clip-path="url(#terminal-2127949371-line-12)">&#160;—&#160;bug,&#160;feature,&#160;screensaver&#160;idea,&#160;config</text><text class="terminal-2127949371-r5" x="1183.4" y="312.8" textLength="12.2" clip-path="url(#terminal-2127949371-line-12)">│</text><text class="terminal-2127949371-r1" x="1220" y="312.8" textLength="12.2" clip-path="url(#terminal-2127949371-line-12)">
</text><text class="terminal-2127949371-r5" x="24.4" y="337.2" textLength="12.2" clip-path="url(#terminal-2127949371-line-13)">│</text><text class="terminal-2127949371-r6" x="73.2" y="337.2" textLength="24.4" clip-path="url(#terminal-2127949371-line-13)">•&#160;</text><text class="terminal-2127949371-r7" x="97.6" y="337.2" textLength="170.8" clip-path="url(#terminal-2127949371-line-13)">demo/hero.tape</text><text class="terminal-2127949371-r2" x="268.4" y="337.2" textLength="24.4" clip-path="url(#terminal-2127949371-line-13)">,&#160;</text><text class="terminal-2127949371-r7" x="292.8" y="337.2" textLength="207.4" clip-path="url(#terminal-2127949371-line-13)">screensavers.tape</text><text class="terminal-2127949371-r2" x="500.2" y="337.2" textLength="24.4" clip-path="url(#terminal-2127949371-line-13)">,&#160;</text><text class="terminal-2127949371-r7" x="524.6" y="337.2" textLength="146.4" clip-path="url(#terminal-2127949371-line-13)">install.tape</text><text class="terminal-2127949371-r2" x="671" y="337.2" textLength="292.8" clip-path="url(#terminal-2127949371-line-13)">&#160;—&#160;VHS&#160;recording&#160;scripts</text><text class="terminal-2127949371-r5" x="1183.4" y="337.2" textLength="12.2" clip-path="url(#terminal-2127949371-line-13)">│</text><text class="terminal-2127949371-r1" x="1220" y="337.2" textLength="12.2" clip-path="url(#terminal-2127949371-line-13)">
</text><text class="terminal-2127949371-r5" x="24.4" y="361.6" textLength="12.2" clip-path="url(#terminal-2127949371-line-14)">│</text><text class="terminal-2127949371-r6" x="73.2" y="361.6" textLength="24.4" clip-path="url(#terminal-2127949371-line-14)">•&#160;</text><text class="terminal-2127949371-r7" x="97.6" y="361.6" textLength="280.6" clip-path="url(#terminal-2127949371-line-14)">demo/social-preview.png</text><text class="terminal-2127949371-r2" x="378.2" y="361.6" textLength="280.6" clip-path="url(#terminal-2127949371-line-14)">&#160;—&#160;1280×640&#160;social&#160;card</text><text class="terminal-2127949371-r5" x="1183.4" y="361.6" textLength="12.2" clip-path="url(#terminal-2127949371-line-14)">│</text><text class="terminal-2127949371-r1" x="1220" y="361.6" textLength="12.2" clip-path="url(#terminal-2127949371-line-14)">
</text><text class="terminal-2127949371-r5" x="24.4" y="386" textLength="12.2" clip-path="url(#terminal-2127949371-line-15)">│</text><text class="terminal-2127949371-r6" x="73.2" y="386" textLength="24.4" clip-path="url(#terminal-2127949371-line-15)">•&#160;</text><text class="terminal-2127949371-r7" x="97.6" y="386" textLength="122" clip-path="url(#terminal-2127949371-line-15)">.gitignore</text><text class="terminal-2127949371-r2" x="219.6" y="386" textLength="36.6" clip-path="url(#terminal-2127949371-line-15)">&#160;—&#160;</text><text class="terminal-2127949371-r7" x="256.2" y="386" textLength="122" clip-path="url(#terminal-2127949371-line-15)">demo/*.gif</text><text class="terminal-2127949371-r2" x="378.2" y="386" textLength="109.8" clip-path="url(#terminal-2127949371-line-15)">&#160;excluded</text><text class="terminal-2127949371-r5" x="1183.4" y="386" textLength="12.2" clip-path="url(#terminal-2127949371-line-15)">│</text><text class="terminal-2127949371-r1" x="1220" y="386" textLength="12.2" clip-path="url(#terminal-2127949371-line-15)">
</text><text class="terminal-2127949371-r5" x="24.4" y="410.4" textLength="12.2" clip-path="url(#terminal-2127949371-line-16)">│</text><text class="terminal-2127949371-r5" x="1183.4" y="410.4" textLength="12.2" clip-path="url(#terminal-2127949371-line-16)">│</text><text class="terminal-2127949371-r1" x="1220" y="410.4" textLength="12.2" clip-path="url(#terminal-2127949371-line-16)">
</text><text class="terminal-2127949371-r5" x="24.4" y="434.8" textLength="12.2" clip-path="url(#terminal-2127949371-line-17)">╰</text><text class="terminal-2127949371-r5" x="36.6" y="434.8" textLength="1146.8" clip-path="url(#terminal-2127949371-line-17)">──────────────────────────────────────────────────────────────────────────────────────────────</text><text class="terminal-2127949371-r5" x="1183.4" y="434.8" textLength="12.2" clip-path="url(#terminal-2127949371-line-17)">╯</text><text class="terminal-2127949371-r1" x="1220" y="434.8" textLength="12.2" clip-path="url(#terminal-2127949371-line-17)">
</text><text class="terminal-2127949371-r1" x="1220" y="459.2" textLength="12.2" clip-path="url(#terminal-2127949371-line-18)">
</text><text class="terminal-2127949371-r5" x="24.4" y="483.6" textLength="12.2" clip-path="url(#terminal-2127949371-line-19)">╭</text><text class="terminal-2127949371-r5" x="36.6" y="483.6" textLength="12.2" clip-path="url(#terminal-2127949371-line-19)">─</text><text class="terminal-2127949371-r5" x="48.8" y="483.6" textLength="134.2" clip-path="url(#terminal-2127949371-line-19)">&#160;Decisions&#160;</text><text class="terminal-2127949371-r5" x="183" y="483.6" textLength="1000.4" clip-path="url(#terminal-2127949371-line-19)">──────────────────────────────────────────────────────────────────────────────────</text><text class="terminal-2127949371-r5" x="1183.4" y="483.6" textLength="12.2" clip-path="url(#terminal-2127949371-line-19)">╮</text><text class="terminal-2127949371-r1" x="1220" y="483.6" textLength="12.2" clip-path="url(#terminal-2127949371-line-19)">
</text><text class="terminal-2127949371-r5" x="24.4" y="508" textLength="12.2" clip-path="url(#terminal-2127949371-line-20)">│</text><text class="terminal-2127949371-r6" x="73.2" y="508" textLength="24.4" clip-path="url(#terminal-2127949371-line-20)">•&#160;</text><text class="terminal-2127949371-r2" x="97.6" y="508" textLength="866.2" clip-path="url(#terminal-2127949371-line-20)">Per-session&#160;isolation&#160;enables&#160;multi-session&#160;support&#160;without&#160;state&#160;bleed</text><text class="terminal-2127949371-r5" x="1183.4" y="508" textLength="12.2" clip-path="url(#terminal-2127949371-line-20)">│</text><text class="terminal-2127949371-r1" x="1220" y="508" textLength="12.2" clip-path="url(#terminal-2127949371-line-20)">
</text><text class="terminal-2127949371-r5" x="24.4" y="532.4" textLength="12.2" clip-path="url(#terminal-2127949371-line-21)">│</text><text class="terminal-2127949371-r6" x="73.2" y="532.4" textLength="24.4" clip-path="url(#terminal-2127949371-line-21)">•&#160;</text><text class="terminal-2127949371-r2" x="97.6" y="532.4" textLength="280.6" clip-path="url(#terminal-2127949371-line-21)">Session&#160;state&#160;lives&#160;in&#160;</text><text class="terminal-2127949371-r7" x="378.2" y="532.4" textLength="122" clip-path="url(#terminal-2127949371-line-21)">session.py</text><text class="terminal-2127949371-r2" x="500.2" y="532.4" textLength="451.4" clip-path="url(#terminal-2127949371-line-21)">&#160;—&#160;single&#160;source&#160;of&#160;truth&#160;per&#160;session</text><text class="terminal-2127949371-r5" x="1183.4" y="532.4" textLength="12.2" clip-path="url(#terminal-2127949371-line-21)">│</text><text class="terminal-2127949371-r1" x="1220" y="532.4" textLength="12.2" clip-path="url(#terminal-2127949371-line-21)">
</text><text class="terminal-2127949371-r5" x="24.4" y="556.8" textLength="12.2" clip-path="url(#terminal-2127949371-line-22)">│</text><text class="terminal-2127949371-r6" x="73.2" y="556.8" textLength="24.4" clip-path="url(#terminal-2127949371-line-22)">•&#160;</text><text class="terminal-2127949371-r2" x="97.6" y="556.8" textLength="122" clip-path="url(#terminal-2127949371-line-22)">Pushed&#160;to&#160;</text><text class="terminal-2127949371-r7" x="219.6" y="556.8" textLength="329.4" clip-path="url(#terminal-2127949371-line-22)">feat/panel-curator-bg-agent</text><text class="terminal-2127949371-r2" x="549" y="556.8" textLength="134.2" clip-path="url(#terminal-2127949371-line-22)">&#160;(not&#160;main)</text><text class="terminal-2127949371-r5" x="1183.4" y="556.8" textLength="12.2" clip-path="url(#terminal-2127949371-line-22)">│</text><text class="terminal-2127949371-r1" x="1220" y="556.8" textLength="12.2" clip-path="url(#terminal-2127949371-line-22)">
</text><text class="terminal-2127949371-r5" x="24.4" y="581.2" textLength="12.2" clip-path="url(#terminal-2127949371-line-23)">│</text><text class="terminal-2127949371-r6" x="73.2" y="581.2" textLength="24.4" clip-path="url(#terminal-2127949371-line-23)">•&#160;</text><text class="terminal-2127949371-r2" x="97.6" y="581.2" textLength="902.8" clip-path="url(#terminal-2127949371-line-23)">GIFs&#160;excluded&#160;from&#160;git&#160;—&#160;record&#160;locally,&#160;host&#160;via&#160;GitHub&#160;releases&#160;or&#160;imgur</text><text class="terminal-2127949371-r5" x="1183.4" y="581.2" textLength="12.2" clip-path="url(#terminal-2127949371-line-23)">│</text><text class="terminal-2127949371-r1" x="1220" y="581.2" textLength="12.2" clip-path="url(#terminal-2127949371-line-23)">
</text><text class="terminal-2127949371-r5" x="24.4" y="605.6" textLength="12.2" clip-path="url(#terminal-2127949371-line-24)">│</text><text class="terminal-2127949371-r5" x="1183.4" y="605.6" textLength="12.2" clip-path="url(#terminal-2127949371-line-24)">│</text><text class="terminal-2127949371-r1" x="1220" y="605.6" textLength="12.2" clip-path="url(#terminal-2127949371-line-24)">
</text><text class="terminal-2127949371-r5" x="24.4" y="630" textLength="12.2" clip-path="url(#terminal-2127949371-line-25)">╰</text><text class="terminal-2127949371-r5" x="36.6" y="630" textLength="1146.8" clip-path="url(#terminal-2127949371-line-25)">──────────────────────────────────────────────────────────────────────────────────────────────</text><text class="terminal-2127949371-r5" x="1183.4" y="630" textLength="12.2" clip-path="url(#terminal-2127949371-line-25)">╯</text><text class="terminal-2127949371-r1" x="1220" y="630" textLength="12.2" clip-path="url(#terminal-2127949371-line-25)">
</text><text class="terminal-2127949371-r1" x="1220" y="654.4" textLength="12.2" clip-path="url(#terminal-2127949371-line-26)">
</text><text class="terminal-2127949371-r1" x="1220" y="678.8" textLength="12.2" clip-path="url(#terminal-2127949371-line-27)">
</text><text class="terminal-2127949371-r1" x="1220" y="703.2" textLength="12.2" clip-path="url(#terminal-2127949371-line-28)">
</text><text class="terminal-2127949371-r8" x="12.2" y="727.6" textLength="268.4" clip-path="url(#terminal-2127949371-line-29)">&#160;Last&#160;updated:&#160;10m&#160;ago</text>
    </g>
    </g>
</svg>
